%TF.GenerationSoftware,KiCad,Pcbnew,(5.1.10)-1*%
%TF.CreationDate,2021-09-30T22:30:01-03:00*%
%TF.ProjectId,esp32,65737033-322e-46b6-9963-61645f706362,rev?*%
%TF.SameCoordinates,Original*%
%TF.FileFunction,Copper,L1,Top*%
%TF.FilePolarity,Positive*%
%FSLAX46Y46*%
G04 Gerber Fmt 4.6, Leading zero omitted, Abs format (unit mm)*
G04 Created by KiCad (PCBNEW (5.1.10)-1) date 2021-09-30 22:30:01*
%MOMM*%
%LPD*%
G01*
G04 APERTURE LIST*
%TA.AperFunction,ComponentPad*%
%ADD10C,1.998980*%
%TD*%
%TA.AperFunction,ComponentPad*%
%ADD11R,1.998980X1.998980*%
%TD*%
%TA.AperFunction,ComponentPad*%
%ADD12C,2.500000*%
%TD*%
%TA.AperFunction,ComponentPad*%
%ADD13C,2.800000*%
%TD*%
%TA.AperFunction,ComponentPad*%
%ADD14C,2.200000*%
%TD*%
%TA.AperFunction,ComponentPad*%
%ADD15C,2.600000*%
%TD*%
%TA.AperFunction,ComponentPad*%
%ADD16O,2.199640X1.501140*%
%TD*%
%TA.AperFunction,ComponentPad*%
%ADD17C,1.501140*%
%TD*%
%TA.AperFunction,ComponentPad*%
%ADD18C,3.500120*%
%TD*%
%TA.AperFunction,ComponentPad*%
%ADD19C,2.499360*%
%TD*%
%TA.AperFunction,ComponentPad*%
%ADD20C,1.750000*%
%TD*%
G04 APERTURE END LIST*
D10*
%TO.P,R3B1,1*%
%TO.N,Net-(Q5-Pad2)*%
X79814000Y-61658000D03*
%TO.P,R3B1,2*%
%TO.N,Earth*%
X87434000Y-61658000D03*
%TD*%
%TO.P,R12,1*%
%TO.N,Net-(Q4-Pad2)*%
X185342000Y-117770000D03*
%TO.P,R12,2*%
%TO.N,Earth*%
X192962000Y-117770000D03*
%TD*%
%TO.P,R9,2*%
%TO.N,Earth*%
X192962000Y-95672000D03*
%TO.P,R9,1*%
%TO.N,Net-(Q3-Pad2)*%
X185342000Y-95672000D03*
%TD*%
%TO.P,D2,1*%
%TO.N,Net-(D2-Pad1)*%
X196780000Y-83564000D03*
D11*
%TO.P,D2,2*%
%TO.N,+5V*%
X196780000Y-73404000D03*
%TD*%
%TO.P,D1,2*%
%TO.N,+5V*%
X196780000Y-50904000D03*
D10*
%TO.P,D1,1*%
%TO.N,Net-(D1-Pad1)*%
X196780000Y-61064000D03*
%TD*%
D11*
%TO.P,D3,2*%
%TO.N,+5V*%
X196780000Y-95904000D03*
D10*
%TO.P,D3,1*%
%TO.N,Net-(D3-Pad1)*%
X196780000Y-106064000D03*
%TD*%
%TO.P,D4,1*%
%TO.N,Net-(D4-Pad1)*%
X196780000Y-128564000D03*
D11*
%TO.P,D4,2*%
%TO.N,+5V*%
X196780000Y-118404000D03*
%TD*%
D10*
%TO.P,D6,1*%
%TO.N,Net-(D6-Pad1)*%
X75514000Y-73466000D03*
D11*
%TO.P,D6,2*%
%TO.N,+5V*%
X75514000Y-83626000D03*
%TD*%
%TO.P,D8,2*%
%TO.N,+5V*%
X75514000Y-128626000D03*
D10*
%TO.P,D8,1*%
%TO.N,Net-(D8-Pad1)*%
X75514000Y-118466000D03*
%TD*%
D11*
%TO.P,D5,2*%
%TO.N,+5V*%
X75514000Y-61126000D03*
D10*
%TO.P,D5,1*%
%TO.N,Net-(D5-Pad1)*%
X75514000Y-50966000D03*
%TD*%
%TO.P,D7,1*%
%TO.N,Net-(D7-Pad1)*%
X75514000Y-95966000D03*
D11*
%TO.P,D7,2*%
%TO.N,+5V*%
X75514000Y-106126000D03*
%TD*%
D12*
%TO.P,J3,3*%
%TO.N,/NC3*%
X224280000Y-95904000D03*
%TO.P,J3,1*%
%TO.N,/NA3*%
X224280000Y-106064000D03*
%TO.P,J3,2*%
%TO.N,/COM3*%
X224280000Y-100984000D03*
%TD*%
%TO.P,J4,2*%
%TO.N,/COM4*%
X224280000Y-123484000D03*
%TO.P,J4,1*%
%TO.N,/NA4*%
X224280000Y-128564000D03*
%TO.P,J4,3*%
%TO.N,/NC4*%
X224280000Y-118404000D03*
%TD*%
%TO.P,J2,2*%
%TO.N,/COM2*%
X224280000Y-78484000D03*
%TO.P,J2,1*%
%TO.N,/NA2*%
X224280000Y-83564000D03*
%TO.P,J2,3*%
%TO.N,/NC2*%
X224280000Y-73404000D03*
%TD*%
%TO.P,J1,3*%
%TO.N,/NC1*%
X224280000Y-50904000D03*
%TO.P,J1,1*%
%TO.N,/NA1*%
X224280000Y-61064000D03*
%TO.P,J1,2*%
%TO.N,/COM1*%
X224280000Y-55984000D03*
%TD*%
%TO.P,J5,3*%
%TO.N,/NC5*%
X48014000Y-61126000D03*
%TO.P,J5,1*%
%TO.N,/NA5*%
X48014000Y-50966000D03*
%TO.P,J5,2*%
%TO.N,/COM5*%
X48014000Y-56046000D03*
%TD*%
%TO.P,J6,2*%
%TO.N,/COM6*%
X48014000Y-78546000D03*
%TO.P,J6,1*%
%TO.N,/NA6*%
X48014000Y-73466000D03*
%TO.P,J6,3*%
%TO.N,/NC6*%
X48014000Y-83626000D03*
%TD*%
%TO.P,J7,3*%
%TO.N,/NC7*%
X48014000Y-106206000D03*
%TO.P,J7,1*%
%TO.N,/NA7*%
X48014000Y-96046000D03*
%TO.P,J7,2*%
%TO.N,/COM7*%
X48014000Y-101126000D03*
%TD*%
%TO.P,J8,2*%
%TO.N,/COM8*%
X48014000Y-123466000D03*
%TO.P,J8,1*%
%TO.N,/NA8*%
X48014000Y-118386000D03*
%TO.P,J8,3*%
%TO.N,/NC8*%
X48014000Y-128546000D03*
%TD*%
D13*
%TO.P,K2,1*%
%TO.N,/COM2*%
X201180000Y-78484000D03*
D14*
%TO.P,K2,5*%
%TO.N,+5V*%
X203180000Y-72484000D03*
D15*
%TO.P,K2,4*%
%TO.N,/NC2*%
X215380000Y-72484000D03*
%TO.P,K2,3*%
%TO.N,/NA2*%
X215380000Y-84484000D03*
D14*
%TO.P,K2,2*%
%TO.N,Net-(D2-Pad1)*%
X203180000Y-84484000D03*
%TD*%
%TO.P,K1,2*%
%TO.N,Net-(D1-Pad1)*%
X203180000Y-61984000D03*
D15*
%TO.P,K1,3*%
%TO.N,/NA1*%
X215380000Y-61984000D03*
%TO.P,K1,4*%
%TO.N,/NC1*%
X215380000Y-49984000D03*
D14*
%TO.P,K1,5*%
%TO.N,+5V*%
X203180000Y-49984000D03*
D13*
%TO.P,K1,1*%
%TO.N,/COM1*%
X201180000Y-55984000D03*
%TD*%
%TO.P,K3,1*%
%TO.N,/COM3*%
X201180000Y-100984000D03*
D14*
%TO.P,K3,5*%
%TO.N,+5V*%
X203180000Y-94984000D03*
D15*
%TO.P,K3,4*%
%TO.N,/NC3*%
X215380000Y-94984000D03*
%TO.P,K3,3*%
%TO.N,/NA3*%
X215380000Y-106984000D03*
D14*
%TO.P,K3,2*%
%TO.N,Net-(D3-Pad1)*%
X203180000Y-106984000D03*
%TD*%
%TO.P,K4,2*%
%TO.N,Net-(D4-Pad1)*%
X203180000Y-129484000D03*
D15*
%TO.P,K4,3*%
%TO.N,/NA4*%
X215380000Y-129484000D03*
%TO.P,K4,4*%
%TO.N,/NC4*%
X215380000Y-117484000D03*
D14*
%TO.P,K4,5*%
%TO.N,+5V*%
X203180000Y-117484000D03*
D13*
%TO.P,K4,1*%
%TO.N,/COM4*%
X201180000Y-123484000D03*
%TD*%
D14*
%TO.P,K6,2*%
%TO.N,Net-(D6-Pad1)*%
X69114000Y-72546000D03*
D15*
%TO.P,K6,3*%
%TO.N,/NA6*%
X56914000Y-72546000D03*
%TO.P,K6,4*%
%TO.N,/NC6*%
X56914000Y-84546000D03*
D14*
%TO.P,K6,5*%
%TO.N,+5V*%
X69114000Y-84546000D03*
D13*
%TO.P,K6,1*%
%TO.N,/COM6*%
X71114000Y-78546000D03*
%TD*%
%TO.P,K8,1*%
%TO.N,/COM8*%
X71114000Y-123546000D03*
D14*
%TO.P,K8,5*%
%TO.N,+5V*%
X69114000Y-129546000D03*
D15*
%TO.P,K8,4*%
%TO.N,/NC8*%
X56914000Y-129546000D03*
%TO.P,K8,3*%
%TO.N,/NA8*%
X56914000Y-117546000D03*
D14*
%TO.P,K8,2*%
%TO.N,Net-(D8-Pad1)*%
X69114000Y-117546000D03*
%TD*%
%TO.P,K5,2*%
%TO.N,Net-(D5-Pad1)*%
X69114000Y-50046000D03*
D15*
%TO.P,K5,3*%
%TO.N,/NA5*%
X56914000Y-50046000D03*
%TO.P,K5,4*%
%TO.N,/NC5*%
X56914000Y-62046000D03*
D14*
%TO.P,K5,5*%
%TO.N,+5V*%
X69114000Y-62046000D03*
D13*
%TO.P,K5,1*%
%TO.N,/COM5*%
X71114000Y-56046000D03*
%TD*%
%TO.P,K7,1*%
%TO.N,/COM7*%
X71114000Y-101046000D03*
D14*
%TO.P,K7,5*%
%TO.N,+5V*%
X69114000Y-107046000D03*
D15*
%TO.P,K7,4*%
%TO.N,/NC7*%
X56914000Y-107046000D03*
%TO.P,K7,3*%
%TO.N,/NA7*%
X56914000Y-95046000D03*
D14*
%TO.P,K7,2*%
%TO.N,Net-(D7-Pad1)*%
X69114000Y-95046000D03*
%TD*%
D16*
%TO.P,OPTOSCOMPLADOR1,1*%
%TO.N,+5V*%
X96590000Y-82260000D03*
%TO.P,OPTOSCOMPLADOR1,2*%
%TO.N,Net-(OPTOSCOMPLADOR1-Pad2)*%
X96590000Y-84800000D03*
%TO.P,OPTOSCOMPLADOR1,3*%
%TO.N,Net-(OPTOSCOMPLADOR1-Pad3)*%
X96590000Y-87340000D03*
%TO.P,OPTOSCOMPLADOR1,4*%
%TO.N,+5V*%
X96590000Y-89880000D03*
%TO.P,OPTOSCOMPLADOR1,5*%
X96590000Y-92420000D03*
%TO.P,OPTOSCOMPLADOR1,6*%
%TO.N,Net-(OPTOSCOMPLADOR1-Pad6)*%
X96590000Y-94960000D03*
%TO.P,OPTOSCOMPLADOR1,7*%
%TO.N,Net-(OPTOSCOMPLADOR1-Pad7)*%
X96590000Y-97500000D03*
%TO.P,OPTOSCOMPLADOR1,8*%
%TO.N,+5V*%
X96590000Y-100040000D03*
%TO.P,OPTOSCOMPLADOR1,9*%
%TO.N,GND*%
X104210000Y-100040000D03*
%TO.P,OPTOSCOMPLADOR1,10*%
%TO.N,Net-(OPTOSCOMPLADOR1-Pad10)*%
X104210000Y-97500000D03*
%TO.P,OPTOSCOMPLADOR1,11*%
%TO.N,Net-(OPTOSCOMPLADOR1-Pad11)*%
X104210000Y-94960000D03*
%TO.P,OPTOSCOMPLADOR1,12*%
%TO.N,GND*%
X104210000Y-92420000D03*
%TO.P,OPTOSCOMPLADOR1,13*%
X104210000Y-89880000D03*
%TO.P,OPTOSCOMPLADOR1,14*%
%TO.N,Net-(OPTOSCOMPLADOR1-Pad14)*%
X104210000Y-87340000D03*
%TO.P,OPTOSCOMPLADOR1,15*%
%TO.N,Net-(OPTOSCOMPLADOR1-Pad15)*%
X104210000Y-84800000D03*
%TO.P,OPTOSCOMPLADOR1,16*%
%TO.N,GND*%
X104210000Y-82260000D03*
%TD*%
%TO.P,OPTOSCOMPLADOR2,16*%
%TO.N,Net-(OPTOSCOMPLADOR2-Pad16)*%
X172660000Y-81610000D03*
%TO.P,OPTOSCOMPLADOR2,15*%
%TO.N,+5V*%
X172660000Y-84150000D03*
%TO.P,OPTOSCOMPLADOR2,14*%
X172660000Y-86690000D03*
%TO.P,OPTOSCOMPLADOR2,13*%
%TO.N,Net-(OPTOSCOMPLADOR2-Pad13)*%
X172660000Y-89230000D03*
%TO.P,OPTOSCOMPLADOR2,12*%
%TO.N,Net-(OPTOSCOMPLADOR2-Pad12)*%
X172660000Y-91770000D03*
%TO.P,OPTOSCOMPLADOR2,11*%
%TO.N,+5V*%
X172660000Y-94310000D03*
%TO.P,OPTOSCOMPLADOR2,10*%
X172660000Y-96850000D03*
%TO.P,OPTOSCOMPLADOR2,9*%
%TO.N,Net-(OPTOSCOMPLADOR2-Pad9)*%
X172660000Y-99390000D03*
%TO.P,OPTOSCOMPLADOR2,8*%
%TO.N,Net-(OPTOSCOMPLADOR2-Pad8)*%
X165040000Y-99390000D03*
%TO.P,OPTOSCOMPLADOR2,7*%
%TO.N,GND*%
X165040000Y-96850000D03*
%TO.P,OPTOSCOMPLADOR2,6*%
X165040000Y-94310000D03*
%TO.P,OPTOSCOMPLADOR2,5*%
%TO.N,Net-(OPTOSCOMPLADOR2-Pad5)*%
X165040000Y-91770000D03*
%TO.P,OPTOSCOMPLADOR2,4*%
%TO.N,Net-(OPTOSCOMPLADOR2-Pad4)*%
X165040000Y-89230000D03*
%TO.P,OPTOSCOMPLADOR2,3*%
%TO.N,GND*%
X165040000Y-86690000D03*
%TO.P,OPTOSCOMPLADOR2,2*%
X165040000Y-84150000D03*
%TO.P,OPTOSCOMPLADOR2,1*%
%TO.N,Net-(OPTOSCOMPLADOR2-Pad1)*%
X165040000Y-81610000D03*
%TD*%
D17*
%TO.P,P1,3*%
%TO.N,N/C*%
X133883400Y-132156200D03*
%TO.P,P1,4*%
%TO.N,GND*%
X136372600Y-132156200D03*
%TO.P,P1,1*%
%TO.N,+5V*%
X136372600Y-130149600D03*
%TO.P,P1,2*%
%TO.N,N/C*%
X133883400Y-130149600D03*
D18*
%TO.P,P1,*%
%TO.N,*%
X129108200Y-134874000D03*
X141147800Y-134874000D03*
%TD*%
D19*
%TO.P,Q2,1*%
%TO.N,Earth*%
X192962000Y-75312000D03*
%TO.P,Q2,2*%
%TO.N,Net-(Q2-Pad2)*%
X189152000Y-75312000D03*
%TO.P,Q2,3*%
%TO.N,Net-(D2-Pad1)*%
X185342000Y-75312000D03*
%TD*%
%TO.P,Q1,1*%
%TO.N,Earth*%
X193216000Y-55246000D03*
%TO.P,Q1,2*%
%TO.N,Net-(Q1-Pad2)*%
X189406000Y-55246000D03*
%TO.P,Q1,3*%
%TO.N,Net-(D1-Pad1)*%
X185596000Y-55246000D03*
%TD*%
%TO.P,Q3,3*%
%TO.N,Net-(D3-Pad1)*%
X185596000Y-100244000D03*
%TO.P,Q3,2*%
%TO.N,Net-(Q3-Pad2)*%
X189406000Y-100244000D03*
%TO.P,Q3,1*%
%TO.N,Earth*%
X193216000Y-100244000D03*
%TD*%
%TO.P,Q4,1*%
%TO.N,Earth*%
X193216000Y-123104000D03*
%TO.P,Q4,2*%
%TO.N,Net-(Q4-Pad2)*%
X189406000Y-123104000D03*
%TO.P,Q4,3*%
%TO.N,Net-(D4-Pad1)*%
X185596000Y-123104000D03*
%TD*%
%TO.P,Q6,3*%
%TO.N,Net-(D6-Pad1)*%
X78798000Y-78422000D03*
%TO.P,Q6,2*%
%TO.N,Net-(Q6-Pad2)*%
X82608000Y-78422000D03*
%TO.P,Q6,1*%
%TO.N,Earth*%
X86418000Y-78422000D03*
%TD*%
%TO.P,Q8,1*%
%TO.N,Earth*%
X86418000Y-123420000D03*
%TO.P,Q8,2*%
%TO.N,Net-(Q8-Pad2)*%
X82608000Y-123420000D03*
%TO.P,Q8,3*%
%TO.N,Net-(D8-Pad1)*%
X78798000Y-123420000D03*
%TD*%
%TO.P,Q5,3*%
%TO.N,Net-(D5-Pad1)*%
X79814000Y-57086000D03*
%TO.P,Q5,2*%
%TO.N,Net-(Q5-Pad2)*%
X83624000Y-57086000D03*
%TO.P,Q5,1*%
%TO.N,Earth*%
X87434000Y-57086000D03*
%TD*%
%TO.P,Q7,3*%
%TO.N,Net-(D7-Pad1)*%
X78798000Y-101068000D03*
%TO.P,Q7,2*%
%TO.N,Net-(Q7-Pad2)*%
X82608000Y-101068000D03*
%TO.P,Q7,1*%
%TO.N,Earth*%
X86418000Y-101068000D03*
%TD*%
D10*
%TO.P,R1,1*%
%TO.N,Net-(OPTOSCOMPLADOR2-Pad1)*%
X161060000Y-81500000D03*
%TO.P,R1,2*%
%TO.N,/IN1*%
X153440000Y-81500000D03*
%TD*%
%TO.P,R5,2*%
%TO.N,Net-(OPTOSCOMPLADOR2-Pad13)*%
X184326000Y-81154000D03*
%TO.P,R5,1*%
%TO.N,Net-(Q2-Pad2)*%
X191946000Y-81154000D03*
%TD*%
%TO.P,R6,1*%
%TO.N,Net-(Q2-Pad2)*%
X185342000Y-70994000D03*
%TO.P,R6,2*%
%TO.N,Earth*%
X192962000Y-70994000D03*
%TD*%
%TO.P,R4,1*%
%TO.N,Net-(OPTOSCOMPLADOR2-Pad4)*%
X161060000Y-89000000D03*
%TO.P,R4,2*%
%TO.N,/IN2*%
X153440000Y-89000000D03*
%TD*%
%TO.P,R2,2*%
%TO.N,Net-(OPTOSCOMPLADOR2-Pad16)*%
X185596000Y-59818000D03*
%TO.P,R2,1*%
%TO.N,Net-(Q1-Pad2)*%
X193216000Y-59818000D03*
%TD*%
%TO.P,R3,2*%
%TO.N,Earth*%
X193812000Y-51532000D03*
%TO.P,R3,1*%
%TO.N,Net-(Q1-Pad2)*%
X186192000Y-51532000D03*
%TD*%
%TO.P,R7,2*%
%TO.N,/IN3*%
X153440000Y-92900000D03*
%TO.P,R7,1*%
%TO.N,Net-(OPTOSCOMPLADOR2-Pad5)*%
X161060000Y-92900000D03*
%TD*%
%TO.P,R10,1*%
%TO.N,Net-(OPTOSCOMPLADOR2-Pad8)*%
X161060000Y-98000000D03*
%TO.P,R10,2*%
%TO.N,/IN4*%
X153440000Y-98000000D03*
%TD*%
%TO.P,R8,1*%
%TO.N,Net-(Q3-Pad2)*%
X193216000Y-105324000D03*
%TO.P,R8,2*%
%TO.N,Net-(OPTOSCOMPLADOR2-Pad12)*%
X185596000Y-105324000D03*
%TD*%
%TO.P,R11,2*%
%TO.N,Net-(OPTOSCOMPLADOR2-Pad9)*%
X185088000Y-129454000D03*
%TO.P,R11,1*%
%TO.N,Net-(Q4-Pad2)*%
X192708000Y-129454000D03*
%TD*%
%TO.P,R6B1,1*%
%TO.N,Net-(Q6-Pad2)*%
X87180000Y-73596000D03*
%TO.P,R6B1,2*%
%TO.N,Earth*%
X79560000Y-73596000D03*
%TD*%
%TO.P,R12B1,1*%
%TO.N,Net-(Q8-Pad2)*%
X79560000Y-118848000D03*
%TO.P,R12B1,2*%
%TO.N,Earth*%
X87180000Y-118848000D03*
%TD*%
%TO.P,R5B1,2*%
%TO.N,Net-(OPTOSCOMPLADOR1-Pad3)*%
X87180000Y-83248000D03*
%TO.P,R5B1,1*%
%TO.N,Net-(Q6-Pad2)*%
X79560000Y-83248000D03*
%TD*%
%TO.P,R11B1,2*%
%TO.N,Net-(OPTOSCOMPLADOR1-Pad7)*%
X86164000Y-128246000D03*
%TO.P,R11B1,1*%
%TO.N,Net-(Q8-Pad2)*%
X78544000Y-128246000D03*
%TD*%
%TO.P,R9B1,2*%
%TO.N,Earth*%
X86164000Y-95988000D03*
%TO.P,R9B1,1*%
%TO.N,Net-(Q7-Pad2)*%
X78544000Y-95988000D03*
%TD*%
%TO.P,R2B1,2*%
%TO.N,Net-(OPTOSCOMPLADOR1-Pad2)*%
X87434000Y-52768000D03*
%TO.P,R2B1,1*%
%TO.N,Net-(Q5-Pad2)*%
X79814000Y-52768000D03*
%TD*%
%TO.P,R8B1,2*%
%TO.N,Net-(OPTOSCOMPLADOR1-Pad6)*%
X86164000Y-105894000D03*
%TO.P,R8B1,1*%
%TO.N,Net-(Q7-Pad2)*%
X78544000Y-105894000D03*
%TD*%
%TO.P,R4B1,1*%
%TO.N,Net-(OPTOSCOMPLADOR1-Pad14)*%
X110352000Y-94830000D03*
%TO.P,R4B1,2*%
%TO.N,/IN6*%
X117972000Y-94830000D03*
%TD*%
%TO.P,R10B1,2*%
%TO.N,/IN8*%
X117872000Y-101630000D03*
%TO.P,R10B1,1*%
%TO.N,Net-(OPTOSCOMPLADOR1-Pad10)*%
X110252000Y-101630000D03*
%TD*%
%TO.P,R1B1,1*%
%TO.N,Net-(OPTOSCOMPLADOR1-Pad15)*%
X110252000Y-91730000D03*
%TO.P,R1B1,2*%
%TO.N,/IN5*%
X117872000Y-91730000D03*
%TD*%
%TO.P,R7B1,1*%
%TO.N,Net-(OPTOSCOMPLADOR1-Pad11)*%
X110352000Y-98030000D03*
%TO.P,R7B1,2*%
%TO.N,/IN7*%
X117972000Y-98030000D03*
%TD*%
D20*
%TO.P,U1,18*%
%TO.N,N/C*%
X122300000Y-69596000D03*
%TO.P,U1,17*%
X122300000Y-72136000D03*
%TO.P,U1,16*%
X122300000Y-74676000D03*
%TO.P,U1,15*%
X122300000Y-77216000D03*
%TO.P,U1,14*%
X122300000Y-79756000D03*
%TO.P,U1,13*%
X122300000Y-82296000D03*
%TO.P,U1,12*%
X122300000Y-84836000D03*
%TO.P,U1,11*%
X122300000Y-87376000D03*
%TO.P,U1,10*%
X122300000Y-89916000D03*
%TO.P,U1,9*%
%TO.N,/IN5*%
X122300000Y-92456000D03*
%TO.P,U1,8*%
%TO.N,/IN6*%
X122300000Y-94996000D03*
%TO.P,U1,7*%
%TO.N,/IN7*%
X122300000Y-97536000D03*
%TO.P,U1,6*%
%TO.N,/IN8*%
X122300000Y-100076000D03*
%TO.P,U1,5*%
%TO.N,N/C*%
X122300000Y-102616000D03*
%TO.P,U1,4*%
X122300000Y-105156000D03*
%TO.P,U1,3*%
X122300000Y-107696000D03*
%TO.P,U1,2*%
%TO.N,GND*%
X122300000Y-110236000D03*
%TO.P,U1,1*%
%TO.N,+5V*%
X122300000Y-112776000D03*
%TO.P,U1,19*%
%TO.N,N/C*%
X147700000Y-112776000D03*
%TO.P,U1,20*%
X147700000Y-110236000D03*
%TO.P,U1,21*%
X147700000Y-107696000D03*
%TO.P,U1,22*%
X147700000Y-105156000D03*
%TO.P,U1,23*%
X147700000Y-102616000D03*
%TO.P,U1,24*%
%TO.N,/IN4*%
X147700000Y-100076000D03*
%TO.P,U1,25*%
%TO.N,/IN3*%
X147700000Y-97536000D03*
%TO.P,U1,26*%
%TO.N,/IN2*%
X147700000Y-94996000D03*
%TO.P,U1,27*%
%TO.N,N/C*%
X147700000Y-92456000D03*
%TO.P,U1,28*%
X147700000Y-89916000D03*
%TO.P,U1,29*%
%TO.N,/IN1*%
X147700000Y-87376000D03*
%TO.P,U1,30*%
%TO.N,N/C*%
X147700000Y-84836000D03*
%TO.P,U1,31*%
X147700000Y-82296000D03*
%TO.P,U1,32*%
X147700000Y-79756000D03*
%TO.P,U1,33*%
X147700000Y-77216000D03*
%TO.P,U1,34*%
X147700000Y-74676000D03*
%TO.P,U1,35*%
X147700000Y-72136000D03*
%TO.P,U1,36*%
X147700000Y-69596000D03*
%TD*%
D10*
%TO.P,H1,1*%
%TO.N,N/C*%
X39000000Y-44000000D03*
%TD*%
%TO.P,H2,1*%
%TO.N,N/C*%
X231000000Y-44000000D03*
%TD*%
%TO.P,H3,1*%
%TO.N,N/C*%
X231000000Y-136000000D03*
%TD*%
%TO.P,H4,1*%
%TO.N,N/C*%
X39000000Y-136000000D03*
%TD*%
%TO.P,R16,1*%
%TO.N,GND*%
X113538000Y-116332000D03*
%TO.P,R16,2*%
X113538000Y-108712000D03*
%TD*%
%TO.P,R14,1*%
%TO.N,GND*%
X168910000Y-76310000D03*
%TO.P,R14,2*%
%TO.N,Earth*%
X168910000Y-68690000D03*
%TD*%
M02*
