M48
; DRILL file {KiCad 5.1.6+dfsg1-1} date Fri Oct 22 11:34:37 2021
; FORMAT={-:-/ absolute / metric / decimal}
; #@! TF.CreationDate,2021-10-22T11:34:37-03:00
; #@! TF.GenerationSoftware,Kicad,Pcbnew,5.1.6+dfsg1-1
; #@! TF.FileFunction,Plated,1,2,PTH
FMAT,2
METRIC
T1C0.762
T2C0.800
T3C0.950
T4C1.000
T5C1.001
T6C1.300
T7C1.400
T8C1.999
T9C2.301
%
G90
G05
T1
X190.905Y-99.98
X80.703Y-124.69
X82.608Y-122.15
X187.501Y-55.23
X189.406Y-57.77
X191.311Y-55.23
X81.595Y-58.02
X83.5Y-55.48
X85.405Y-58.02
X186.095Y-76.98
X188.0Y-79.52
X189.905Y-76.98
X80.703Y-102.338
X82.608Y-99.798
X84.513Y-102.338
X187.095Y-99.98
X189.0Y-102.52
X84.513Y-124.69
X80.703Y-79.692
X82.608Y-77.152
X84.513Y-79.692
X187.095Y-122.73
X189.0Y-125.27
X190.905Y-122.73
T2
X110.252Y-91.73
X117.872Y-91.73
X113.538Y-108.712
X113.538Y-116.332
X79.56Y-118.848
X87.18Y-118.848
X153.44Y-81.5
X161.06Y-81.5
X153.44Y-92.9
X161.06Y-92.9
X79.29Y-46.4
X86.91Y-46.4
X185.44Y-61.0
X193.06Y-61.0
X78.544Y-105.894
X86.164Y-105.894
X110.252Y-101.63
X117.872Y-101.63
X185.342Y-117.77
X192.962Y-117.77
X185.342Y-70.994
X192.962Y-70.994
X153.44Y-89.0
X161.06Y-89.0
X78.544Y-128.246
X86.164Y-128.246
X79.814Y-52.25
X87.434Y-52.25
X87.3Y-76.29
X87.3Y-83.91
X96.59Y-82.26
X96.59Y-84.8
X96.59Y-87.34
X96.59Y-89.88
X96.59Y-92.42
X96.59Y-94.96
X96.59Y-97.5
X96.59Y-100.04
X104.21Y-82.26
X104.21Y-84.8
X104.21Y-87.34
X104.21Y-89.88
X104.21Y-92.42
X104.21Y-94.96
X104.21Y-97.5
X104.21Y-100.04
X79.56Y-73.596
X87.18Y-73.596
X153.44Y-98.0
X161.06Y-98.0
X184.69Y-83.5
X192.31Y-83.5
X185.088Y-129.454
X192.708Y-129.454
X185.19Y-106.25
X192.81Y-106.25
X78.544Y-95.988
X86.164Y-95.988
X110.352Y-98.03
X117.972Y-98.03
X165.04Y-81.61
X165.04Y-84.15
X165.04Y-86.69
X165.04Y-89.23
X165.04Y-91.77
X165.04Y-94.31
X165.04Y-96.85
X165.04Y-99.39
X172.66Y-81.61
X172.66Y-84.15
X172.66Y-86.69
X172.66Y-89.23
X172.66Y-91.77
X172.66Y-94.31
X172.66Y-96.85
X172.66Y-99.39
X185.342Y-95.672
X192.962Y-95.672
X186.192Y-51.532
X193.812Y-51.532
X168.91Y-68.69
X168.91Y-76.31
X110.352Y-94.83
X117.972Y-94.83
T3
X133.883Y-130.15
X133.883Y-132.156
X136.373Y-130.15
X136.373Y-132.156
T4
X122.3Y-69.596
X122.3Y-72.136
X122.3Y-74.676
X122.3Y-77.216
X122.3Y-79.756
X122.3Y-82.296
X122.3Y-84.836
X122.3Y-87.376
X122.3Y-89.916
X122.3Y-92.456
X122.3Y-94.996
X122.3Y-97.536
X122.3Y-100.076
X122.3Y-102.616
X122.3Y-105.156
X122.3Y-107.696
X122.3Y-110.236
X122.3Y-112.776
X147.7Y-69.596
X147.7Y-72.136
X147.7Y-74.676
X147.7Y-77.216
X147.7Y-79.756
X147.7Y-82.296
X147.7Y-84.836
X147.7Y-87.376
X147.7Y-89.916
X147.7Y-92.456
X147.7Y-94.996
X147.7Y-97.536
X147.7Y-100.076
X147.7Y-102.616
X147.7Y-105.156
X147.7Y-107.696
X147.7Y-110.236
X147.7Y-112.776
T5
X75.514Y-95.966
X75.514Y-106.126
X75.514Y-50.966
X75.514Y-61.126
X196.78Y-73.404
X196.78Y-83.564
X196.78Y-95.904
X196.78Y-106.064
X196.78Y-50.904
X196.78Y-61.064
X75.514Y-118.466
X75.514Y-128.626
X75.514Y-73.466
X75.514Y-83.626
X196.78Y-118.404
X196.78Y-128.564
T6
X203.18Y-117.484
X203.18Y-129.484
X215.38Y-117.484
X215.38Y-129.484
X56.914Y-50.046
X56.914Y-62.046
X69.114Y-50.046
X69.114Y-62.046
X48.014Y-73.466
X48.014Y-78.546
X48.014Y-83.626
X56.914Y-95.046
X56.914Y-107.046
X69.114Y-95.046
X69.114Y-107.046
X56.914Y-117.546
X56.914Y-129.546
X69.114Y-117.546
X69.114Y-129.546
X224.28Y-73.404
X224.28Y-78.484
X224.28Y-83.564
X224.28Y-50.904
X224.28Y-55.984
X224.28Y-61.064
X224.28Y-95.904
X224.28Y-100.984
X224.28Y-106.064
X203.18Y-94.984
X203.18Y-106.984
X215.38Y-94.984
X215.38Y-106.984
X48.014Y-96.046
X48.014Y-101.126
X48.014Y-106.206
X224.28Y-118.404
X224.28Y-123.484
X224.28Y-128.564
X48.014Y-118.386
X48.014Y-123.466
X48.014Y-128.546
X48.014Y-50.966
X48.014Y-56.046
X48.014Y-61.126
X56.914Y-72.546
X56.914Y-84.546
X69.114Y-72.546
X69.114Y-84.546
X203.18Y-72.484
X203.18Y-84.484
X215.38Y-72.484
X215.38Y-84.484
X203.18Y-49.984
X203.18Y-61.984
X215.38Y-49.984
X215.38Y-61.984
T7
X71.114Y-78.546
X201.18Y-78.484
X201.18Y-55.984
X201.18Y-123.484
X71.114Y-56.046
X71.114Y-101.046
X71.114Y-123.546
X201.18Y-100.984
T8
X231.0Y-136.0
X231.0Y-44.0
X39.0Y-44.0
X39.0Y-136.0
T9
X129.108Y-134.874
X141.148Y-134.874
T0
M30
