<?xml version="1.0" standalone="no"?>
 <!DOCTYPE svg PUBLIC "-//W3C//DTD SVG 1.1//EN" 
 "http://www.w3.org/Graphics/SVG/1.1/DTD/svg11.dtd"> 
<svg
  xmlns:svg="http://www.w3.org/2000/svg"
  xmlns="http://www.w3.org/2000/svg"
  xmlns:xlink="http://www.w3.org/1999/xlink"
  version="1.1"
  width="29.700220cm" height="21.000720cm" viewBox="0 0 116930 82680">
<title>SVG Picture created as esp32-PTH-drl_map.svg date 2021/09/30 22:29:54 </title>
  <desc>Picture generated by PCBNEW </desc>
<g style="fill:#000000; fill-opacity:1;stroke:#000000; stroke-opacity:1;
stroke-linecap:round; stroke-linejoin:round;"
 transform="translate(0 0) scale(1 1)">
</g>
<g style="fill:#000000; fill-opacity:0.0; 
stroke:#000000; stroke-width:-0.000393701; stroke-opacity:1; 
stroke-linecap:round; stroke-linejoin:round;">
</g>
<g style="fill:#000000; fill-opacity:0.0; 
stroke:#000000; stroke-width:19.685; stroke-opacity:1; 
stroke-linecap:round; stroke-linejoin:round;">
<path d="M13779 15748
L92519 15748
" />
<path d="M13779 55118
L13779 15748
" />
<path d="M92519 55118
L13779 55118
" />
<path d="M92519 15748
L92519 55118
" />
</g>
<g style="fill:#000000; fill-opacity:0.0; 
stroke:#000000; stroke-width:78.7402; stroke-opacity:1; 
stroke-linecap:round; stroke-linejoin:round;">
<path d="M30765 37633
L31080 37948
" />
<path d="M31080 37633
L30765 37948
" />
<path d="M30765 41533
L31080 41848
" />
<path d="M31080 41533
L30765 41848
" />
<path d="M30765 50333
L31080 50648
" />
<path d="M31080 50333
L30765 50648
" />
<path d="M31165 28817
L31480 29132
" />
<path d="M31480 28817
L31165 29132
" />
<path d="M31165 32617
L31480 32932
" />
<path d="M31480 32617
L31165 32932
" />
<path d="M31165 46633
L31480 46948
" />
<path d="M31480 46633
L31165 46948
" />
<path d="M31265 20617
L31580 20932
" />
<path d="M31580 20617
L31265 20932
" />
<path d="M31265 24117
L31580 24432
" />
<path d="M31580 24117
L31265 24432
" />
<path d="M33765 37633
L34080 37948
" />
<path d="M34080 37633
L33765 37948
" />
<path d="M33765 41533
L34080 41848
" />
<path d="M34080 41533
L33765 41848
" />
<path d="M33765 50333
L34080 50648
" />
<path d="M34080 50333
L33765 50648
" />
<path d="M34165 28817
L34480 29132
" />
<path d="M34480 28817
L34165 29132
" />
<path d="M34165 32617
L34480 32932
" />
<path d="M34480 32617
L34165 32932
" />
<path d="M34165 46633
L34480 46948
" />
<path d="M34480 46633
L34165 46948
" />
<path d="M34265 20617
L34580 20932
" />
<path d="M34580 20617
L34265 20932
" />
<path d="M34265 24117
L34580 24432
" />
<path d="M34580 24117
L34265 24432
" />
<path d="M37870 32228
L38185 32543
" />
<path d="M38185 32228
L37870 32543
" />
<path d="M37870 33228
L38185 33543
" />
<path d="M38185 33228
L37870 33543
" />
<path d="M37870 34228
L38185 34543
" />
<path d="M38185 34228
L37870 34543
" />
<path d="M37870 35228
L38185 35543
" />
<path d="M38185 35228
L37870 35543
" />
<path d="M37870 36228
L38185 36543
" />
<path d="M38185 36228
L37870 36543
" />
<path d="M37870 37228
L38185 37543
" />
<path d="M38185 37228
L37870 37543
" />
<path d="M37870 38228
L38185 38543
" />
<path d="M38185 38228
L37870 38543
" />
<path d="M37870 39228
L38185 39543
" />
<path d="M38185 39228
L37870 39543
" />
<path d="M40870 32228
L41185 32543
" />
<path d="M41185 32228
L40870 32543
" />
<path d="M40870 33228
L41185 33543
" />
<path d="M41185 33228
L40870 33543
" />
<path d="M40870 34228
L41185 34543
" />
<path d="M41185 34228
L40870 34543
" />
<path d="M40870 35228
L41185 35543
" />
<path d="M41185 35228
L40870 35543
" />
<path d="M40870 36228
L41185 36543
" />
<path d="M41185 36228
L40870 36543
" />
<path d="M40870 37228
L41185 37543
" />
<path d="M41185 37228
L40870 37543
" />
<path d="M40870 38228
L41185 38543
" />
<path d="M41185 38228
L40870 38543
" />
<path d="M40870 39228
L41185 39543
" />
<path d="M41185 39228
L40870 39543
" />
<path d="M43248 35956
L43563 36271
" />
<path d="M43563 35956
L43248 36271
" />
<path d="M43248 39854
L43563 40169
" />
<path d="M43563 39854
L43248 40169
" />
<path d="M43288 37177
L43603 37492
" />
<path d="M43603 37177
L43288 37492
" />
<path d="M43288 38436
L43603 38751
" />
<path d="M43603 38436
L43288 38751
" />
<path d="M44542 42642
L44857 42957
" />
<path d="M44857 42642
L44542 42957
" />
<path d="M44542 45642
L44857 45957
" />
<path d="M44857 45642
L44542 45957
" />
<path d="M46248 35956
L46563 36271
" />
<path d="M46563 35956
L46248 36271
" />
<path d="M46248 39854
L46563 40169
" />
<path d="M46563 39854
L46248 40169
" />
<path d="M46288 37177
L46603 37492
" />
<path d="M46603 37177
L46288 37492
" />
<path d="M46288 38436
L46603 38751
" />
<path d="M46603 38436
L46288 38751
" />
<path d="M60251 31929
L60566 32244
" />
<path d="M60566 31929
L60251 32244
" />
<path d="M60251 34881
L60566 35196
" />
<path d="M60566 34881
L60251 35196
" />
<path d="M60251 36417
L60566 36732
" />
<path d="M60566 36417
L60251 36732
" />
<path d="M60251 38425
L60566 38740
" />
<path d="M60566 38425
L60251 38740
" />
<path d="M63251 31929
L63566 32244
" />
<path d="M63566 31929
L63251 32244
" />
<path d="M63251 34881
L63566 35196
" />
<path d="M63566 34881
L63251 35196
" />
<path d="M63251 36417
L63566 36732
" />
<path d="M63566 36417
L63251 36732
" />
<path d="M63251 38425
L63566 38740
" />
<path d="M63566 38425
L63251 38740
" />
<path d="M64818 31972
L65133 32287
" />
<path d="M65133 31972
L64818 32287
" />
<path d="M64818 32972
L65133 33287
" />
<path d="M65133 32972
L64818 33287
" />
<path d="M64818 33972
L65133 34287
" />
<path d="M65133 33972
L64818 34287
" />
<path d="M64818 34972
L65133 35287
" />
<path d="M65133 34972
L64818 35287
" />
<path d="M64818 35972
L65133 36287
" />
<path d="M65133 35972
L64818 36287
" />
<path d="M64818 36972
L65133 37287
" />
<path d="M65133 36972
L64818 37287
" />
<path d="M64818 37972
L65133 38287
" />
<path d="M65133 37972
L64818 38287
" />
<path d="M64818 38972
L65133 39287
" />
<path d="M65133 38972
L64818 39287
" />
<path d="M66342 26885
L66657 27200
" />
<path d="M66657 26885
L66342 27200
" />
<path d="M66342 29885
L66657 30200
" />
<path d="M66657 29885
L66342 30200
" />
<path d="M67818 31972
L68133 32287
" />
<path d="M68133 31972
L67818 32287
" />
<path d="M67818 32972
L68133 33287
" />
<path d="M68133 32972
L67818 33287
" />
<path d="M67818 33972
L68133 34287
" />
<path d="M68133 33972
L67818 34287
" />
<path d="M67818 34972
L68133 35287
" />
<path d="M68133 34972
L67818 35287
" />
<path d="M67818 35972
L68133 36287
" />
<path d="M68133 35972
L67818 36287
" />
<path d="M67818 36972
L68133 37287
" />
<path d="M68133 36972
L67818 37287
" />
<path d="M67818 37972
L68133 38287
" />
<path d="M68133 37972
L67818 38287
" />
<path d="M67818 38972
L68133 39287
" />
<path d="M68133 38972
L67818 39287
" />
<path d="M72411 31792
L72726 32107
" />
<path d="M72726 31792
L72411 32107
" />
<path d="M72711 50808
L73026 51123
" />
<path d="M73026 50808
L72711 51123
" />
<path d="M72811 27792
L73126 28107
" />
<path d="M73126 27792
L72811 28107
" />
<path d="M72811 37508
L73126 37823
" />
<path d="M73126 37508
L72811 37823
" />
<path d="M72811 46208
L73126 46523
" />
<path d="M73126 46208
L72811 46523
" />
<path d="M72911 23392
L73226 23707
" />
<path d="M73226 23392
L72911 23707
" />
<path d="M72911 41308
L73226 41623
" />
<path d="M73226 41308
L72911 41623
" />
<path d="M73146 20130
L73461 20445
" />
<path d="M73461 20130
L73146 20445
" />
<path d="M75411 31792
L75726 32107
" />
<path d="M75726 31792
L75411 32107
" />
<path d="M75711 50808
L76026 51123
" />
<path d="M76026 50808
L75711 51123
" />
<path d="M75811 27792
L76126 28107
" />
<path d="M76126 27792
L75811 28107
" />
<path d="M75811 37508
L76126 37823
" />
<path d="M76126 37508
L75811 37823
" />
<path d="M75811 46208
L76126 46523
" />
<path d="M76126 46208
L75811 46523
" />
<path d="M75911 23392
L76226 23707
" />
<path d="M76226 23392
L75911 23707
" />
<path d="M75911 41308
L76226 41623
" />
<path d="M76226 41308
L75911 41623
" />
<path d="M76146 20130
L76461 20445
" />
<path d="M76461 20130
L76146 20445
" />
<circle cx="52710" cy="51240" r="187" /> 
<circle cx="52710" cy="52030" r="187" /> 
<circle cx="53690" cy="51240" r="187" /> 
<circle cx="53690" cy="52030" r="187" /> 
<path d="M48149 27203
L48149 27596
" />
<path d="M47952 27400
L48346 27400
" />
<path d="M48149 28203
L48149 28596
" />
<path d="M47952 28400
L48346 28400
" />
<path d="M48149 29203
L48149 29596
" />
<path d="M47952 29400
L48346 29400
" />
<path d="M48149 30203
L48149 30596
" />
<path d="M47952 30400
L48346 30400
" />
<path d="M48149 31203
L48149 31596
" />
<path d="M47952 31400
L48346 31400
" />
<path d="M48149 32203
L48149 32596
" />
<path d="M47952 32400
L48346 32400
" />
<path d="M48149 33203
L48149 33596
" />
<path d="M47952 33400
L48346 33400
" />
<path d="M48149 34203
L48149 34596
" />
<path d="M47952 34400
L48346 34400
" />
<path d="M48149 35203
L48149 35596
" />
<path d="M47952 35400
L48346 35400
" />
<path d="M48149 36203
L48149 36596
" />
<path d="M47952 36400
L48346 36400
" />
<path d="M48149 37203
L48149 37596
" />
<path d="M47952 37400
L48346 37400
" />
<path d="M48149 38203
L48149 38596
" />
<path d="M47952 38400
L48346 38400
" />
<path d="M48149 39203
L48149 39596
" />
<path d="M47952 39400
L48346 39400
" />
<path d="M48149 40203
L48149 40596
" />
<path d="M47952 40400
L48346 40400
" />
<path d="M48149 41203
L48149 41596
" />
<path d="M47952 41400
L48346 41400
" />
<path d="M48149 42203
L48149 42596
" />
<path d="M47952 42400
L48346 42400
" />
<path d="M48149 43203
L48149 43596
" />
<path d="M47952 43400
L48346 43400
" />
<path d="M48149 44203
L48149 44596
" />
<path d="M47952 44400
L48346 44400
" />
<path d="M58149 27203
L58149 27596
" />
<path d="M57952 27400
L58346 27400
" />
<path d="M58149 28203
L58149 28596
" />
<path d="M57952 28400
L58346 28400
" />
<path d="M58149 29203
L58149 29596
" />
<path d="M57952 29400
L58346 29400
" />
<path d="M58149 30203
L58149 30596
" />
<path d="M57952 30400
L58346 30400
" />
<path d="M58149 31203
L58149 31596
" />
<path d="M57952 31400
L58346 31400
" />
<path d="M58149 32203
L58149 32596
" />
<path d="M57952 32400
L58346 32400
" />
<path d="M58149 33203
L58149 33596
" />
<path d="M57952 33400
L58346 33400
" />
<path d="M58149 34203
L58149 34596
" />
<path d="M57952 34400
L58346 34400
" />
<path d="M58149 35203
L58149 35596
" />
<path d="M57952 35400
L58346 35400
" />
<path d="M58149 36203
L58149 36596
" />
<path d="M57952 36400
L58346 36400
" />
<path d="M58149 37203
L58149 37596
" />
<path d="M57952 37400
L58346 37400
" />
<path d="M58149 38203
L58149 38596
" />
<path d="M57952 38400
L58346 38400
" />
<path d="M58149 39203
L58149 39596
" />
<path d="M57952 39400
L58346 39400
" />
<path d="M58149 40203
L58149 40596
" />
<path d="M57952 40400
L58346 40400
" />
<path d="M58149 41203
L58149 41596
" />
<path d="M57952 41400
L58346 41400
" />
<path d="M58149 42203
L58149 42596
" />
<path d="M57952 42400
L58346 42400
" />
<path d="M58149 43203
L58149 43596
" />
<path d="M57952 43400
L58346 43400
" />
<path d="M58149 44203
L58149 44596
" />
<path d="M57952 44400
L58346 44400
" />
<path style="fill:#000000; fill-opacity:0.0; 
stroke:#000000; stroke-width:78.7402; stroke-opacity:1; 
stroke-linecap:round; stroke-linejoin:round;fill:none"
d="M 29869.2,20204.7
29869.2,19926.1
29590.6,19926.1
29590.6,20204.7
Z" /> 
<path style="fill:#000000; fill-opacity:0.0; 
stroke:#000000; stroke-width:78.7402; stroke-opacity:1; 
stroke-linecap:round; stroke-linejoin:round;fill:none"
d="M 29869.2,24204.7
29869.2,23926.1
29590.6,23926.1
29590.6,24204.7
Z" /> 
<path style="fill:#000000; fill-opacity:0.0; 
stroke:#000000; stroke-width:78.7402; stroke-opacity:1; 
stroke-linecap:round; stroke-linejoin:round;fill:none"
d="M 29869.2,29062.9
29869.2,28784.3
29590.6,28784.3
29590.6,29062.9
Z" /> 
<path style="fill:#000000; fill-opacity:0.0; 
stroke:#000000; stroke-width:78.7402; stroke-opacity:1; 
stroke-linecap:round; stroke-linejoin:round;fill:none"
d="M 29869.2,33062.9
29869.2,32784.3
29590.6,32784.3
29590.6,33062.9
Z" /> 
<path style="fill:#000000; fill-opacity:0.0; 
stroke:#000000; stroke-width:78.7402; stroke-opacity:1; 
stroke-linecap:round; stroke-linejoin:round;fill:none"
d="M 29869.2,37921.2
29869.2,37642.6
29590.6,37642.6
29590.6,37921.2
Z" /> 
<path style="fill:#000000; fill-opacity:0.0; 
stroke:#000000; stroke-width:78.7402; stroke-opacity:1; 
stroke-linecap:round; stroke-linejoin:round;fill:none"
d="M 29869.2,41921.2
29869.2,41642.6
29590.6,41642.6
29590.6,41921.2
Z" /> 
<path style="fill:#000000; fill-opacity:0.0; 
stroke:#000000; stroke-width:78.7402; stroke-opacity:1; 
stroke-linecap:round; stroke-linejoin:round;fill:none"
d="M 29869.2,46779.5
29869.2,46500.9
29590.6,46500.9
29590.6,46779.5
Z" /> 
<path style="fill:#000000; fill-opacity:0.0; 
stroke:#000000; stroke-width:78.7402; stroke-opacity:1; 
stroke-linecap:round; stroke-linejoin:round;fill:none"
d="M 29869.2,50779.5
29869.2,50500.9
29590.6,50500.9
29590.6,50779.5
Z" /> 
<path style="fill:#000000; fill-opacity:0.0; 
stroke:#000000; stroke-width:78.7402; stroke-opacity:1; 
stroke-linecap:round; stroke-linejoin:round;fill:none"
d="M 77611.7,20180.2
77611.7,19901.6
77333.1,19901.6
77333.1,20180.2
Z" /> 
<path style="fill:#000000; fill-opacity:0.0; 
stroke:#000000; stroke-width:78.7402; stroke-opacity:1; 
stroke-linecap:round; stroke-linejoin:round;fill:none"
d="M 77611.7,24180.2
77611.7,23901.6
77333.1,23901.6
77333.1,24180.2
Z" /> 
<path style="fill:#000000; fill-opacity:0.0; 
stroke:#000000; stroke-width:78.7402; stroke-opacity:1; 
stroke-linecap:round; stroke-linejoin:round;fill:none"
d="M 77611.7,29038.5
77611.7,28759.9
77333.1,28759.9
77333.1,29038.5
Z" /> 
<path style="fill:#000000; fill-opacity:0.0; 
stroke:#000000; stroke-width:78.7402; stroke-opacity:1; 
stroke-linecap:round; stroke-linejoin:round;fill:none"
d="M 77611.7,33038.5
77611.7,32759.9
77333.1,32759.9
77333.1,33038.5
Z" /> 
<path style="fill:#000000; fill-opacity:0.0; 
stroke:#000000; stroke-width:78.7402; stroke-opacity:1; 
stroke-linecap:round; stroke-linejoin:round;fill:none"
d="M 77611.7,37896.8
77611.7,37618.2
77333.1,37618.2
77333.1,37896.8
Z" /> 
<path style="fill:#000000; fill-opacity:0.0; 
stroke:#000000; stroke-width:78.7402; stroke-opacity:1; 
stroke-linecap:round; stroke-linejoin:round;fill:none"
d="M 77611.7,41896.8
77611.7,41618.2
77333.1,41618.2
77333.1,41896.8
Z" /> 
<path style="fill:#000000; fill-opacity:0.0; 
stroke:#000000; stroke-width:78.7402; stroke-opacity:1; 
stroke-linecap:round; stroke-linejoin:round;fill:none"
d="M 77611.7,46755
77611.7,46476.4
77333.1,46476.4
77333.1,46755
Z" /> 
<path style="fill:#000000; fill-opacity:0.0; 
stroke:#000000; stroke-width:78.7402; stroke-opacity:1; 
stroke-linecap:round; stroke-linejoin:round;fill:none"
d="M 77611.7,50755
77611.7,50476.4
77333.1,50476.4
77333.1,50755
Z" /> 
<path style="fill:#000000; fill-opacity:0.0; 
stroke:#000000; stroke-width:78.7402; stroke-opacity:1; 
stroke-linecap:round; stroke-linejoin:round;fill:none"
d="M 31022.8,31120.8
31268.8,30874.8
31022.8,30628.8
30776.8,30874.8
Z" /> 
<path style="fill:#000000; fill-opacity:0.0; 
stroke:#000000; stroke-width:78.7402; stroke-opacity:1; 
stroke-linecap:round; stroke-linejoin:round;fill:none"
d="M 31022.8,40036.6
31268.8,39790.6
31022.8,39544.6
30776.8,39790.6
Z" /> 
<path style="fill:#000000; fill-opacity:0.0; 
stroke:#000000; stroke-width:78.7402; stroke-opacity:1; 
stroke-linecap:round; stroke-linejoin:round;fill:none"
d="M 31022.8,48836.6
31268.8,48590.6
31022.8,48344.6
30776.8,48590.6
Z" /> 
<path style="fill:#000000; fill-opacity:0.0; 
stroke:#000000; stroke-width:78.7402; stroke-opacity:1; 
stroke-linecap:round; stroke-linejoin:round;fill:none"
d="M 31422.8,22720.8
31668.8,22474.8
31422.8,22228.8
31176.8,22474.8
Z" /> 
<path style="fill:#000000; fill-opacity:0.0; 
stroke:#000000; stroke-width:78.7402; stroke-opacity:1; 
stroke-linecap:round; stroke-linejoin:round;fill:none"
d="M 32522.8,31120.8
32768.8,30874.8
32522.8,30628.8
32276.8,30874.8
Z" /> 
<path style="fill:#000000; fill-opacity:0.0; 
stroke:#000000; stroke-width:78.7402; stroke-opacity:1; 
stroke-linecap:round; stroke-linejoin:round;fill:none"
d="M 32522.8,40036.6
32768.8,39790.6
32522.8,39544.6
32276.8,39790.6
Z" /> 
<path style="fill:#000000; fill-opacity:0.0; 
stroke:#000000; stroke-width:78.7402; stroke-opacity:1; 
stroke-linecap:round; stroke-linejoin:round;fill:none"
d="M 32522.8,48836.6
32768.8,48590.6
32522.8,48344.6
32276.8,48590.6
Z" /> 
<path style="fill:#000000; fill-opacity:0.0; 
stroke:#000000; stroke-width:78.7402; stroke-opacity:1; 
stroke-linecap:round; stroke-linejoin:round;fill:none"
d="M 32922.8,22720.8
33168.8,22474.8
32922.8,22228.8
32676.8,22474.8
Z" /> 
<path style="fill:#000000; fill-opacity:0.0; 
stroke:#000000; stroke-width:78.7402; stroke-opacity:1; 
stroke-linecap:round; stroke-linejoin:round;fill:none"
d="M 34022.8,31120.8
34268.8,30874.8
34022.8,30628.8
33776.8,30874.8
Z" /> 
<path style="fill:#000000; fill-opacity:0.0; 
stroke:#000000; stroke-width:78.7402; stroke-opacity:1; 
stroke-linecap:round; stroke-linejoin:round;fill:none"
d="M 34022.8,40036.6
34268.8,39790.6
34022.8,39544.6
33776.8,39790.6
Z" /> 
<path style="fill:#000000; fill-opacity:0.0; 
stroke:#000000; stroke-width:78.7402; stroke-opacity:1; 
stroke-linecap:round; stroke-linejoin:round;fill:none"
d="M 34022.8,48836.6
34268.8,48590.6
34022.8,48344.6
33776.8,48590.6
Z" /> 
<path style="fill:#000000; fill-opacity:0.0; 
stroke:#000000; stroke-width:78.7402; stroke-opacity:1; 
stroke-linecap:round; stroke-linejoin:round;fill:none"
d="M 34422.8,22720.8
34668.8,22474.8
34422.8,22228.8
34176.8,22474.8
Z" /> 
<path style="fill:#000000; fill-opacity:0.0; 
stroke:#000000; stroke-width:78.7402; stroke-opacity:1; 
stroke-linecap:round; stroke-linejoin:round;fill:none"
d="M 72969.3,29896.4
73215.3,29650.4
72969.3,29404.4
72723.3,29650.4
Z" /> 
<path style="fill:#000000; fill-opacity:0.0; 
stroke:#000000; stroke-width:78.7402; stroke-opacity:1; 
stroke-linecap:round; stroke-linejoin:round;fill:none"
d="M 73069.3,21996.4
73315.3,21750.4
73069.3,21504.4
72823.3,21750.4
Z" /> 
<path style="fill:#000000; fill-opacity:0.0; 
stroke:#000000; stroke-width:78.7402; stroke-opacity:1; 
stroke-linecap:round; stroke-linejoin:round;fill:none"
d="M 73069.3,39712.1
73315.3,39466.1
73069.3,39220.1
72823.3,39466.1
Z" /> 
<path style="fill:#000000; fill-opacity:0.0; 
stroke:#000000; stroke-width:78.7402; stroke-opacity:1; 
stroke-linecap:round; stroke-linejoin:round;fill:none"
d="M 73069.3,48712.1
73315.3,48466.1
73069.3,48220.1
72823.3,48466.1
Z" /> 
<path style="fill:#000000; fill-opacity:0.0; 
stroke:#000000; stroke-width:78.7402; stroke-opacity:1; 
stroke-linecap:round; stroke-linejoin:round;fill:none"
d="M 74469.3,29896.4
74715.3,29650.4
74469.3,29404.4
74223.3,29650.4
Z" /> 
<path style="fill:#000000; fill-opacity:0.0; 
stroke:#000000; stroke-width:78.7402; stroke-opacity:1; 
stroke-linecap:round; stroke-linejoin:round;fill:none"
d="M 74569.3,21996.4
74815.3,21750.4
74569.3,21504.4
74323.3,21750.4
Z" /> 
<path style="fill:#000000; fill-opacity:0.0; 
stroke:#000000; stroke-width:78.7402; stroke-opacity:1; 
stroke-linecap:round; stroke-linejoin:round;fill:none"
d="M 74569.3,39712.1
74815.3,39466.1
74569.3,39220.1
74323.3,39466.1
Z" /> 
<path style="fill:#000000; fill-opacity:0.0; 
stroke:#000000; stroke-width:78.7402; stroke-opacity:1; 
stroke-linecap:round; stroke-linejoin:round;fill:none"
d="M 74569.3,48712.1
74815.3,48466.1
74569.3,48220.1
74323.3,48466.1
Z" /> 
<path style="fill:#000000; fill-opacity:0.0; 
stroke:#000000; stroke-width:78.7402; stroke-opacity:1; 
stroke-linecap:round; stroke-linejoin:round;fill:none"
d="M 75969.3,29896.4
76215.3,29650.4
75969.3,29404.4
75723.3,29650.4
Z" /> 
<path style="fill:#000000; fill-opacity:0.0; 
stroke:#000000; stroke-width:78.7402; stroke-opacity:1; 
stroke-linecap:round; stroke-linejoin:round;fill:none"
d="M 76069.3,21996.4
76315.3,21750.4
76069.3,21504.4
75823.3,21750.4
Z" /> 
<path style="fill:#000000; fill-opacity:0.0; 
stroke:#000000; stroke-width:78.7402; stroke-opacity:1; 
stroke-linecap:round; stroke-linejoin:round;fill:none"
d="M 76069.3,39712.1
76315.3,39466.1
76069.3,39220.1
75823.3,39466.1
Z" /> 
<path style="fill:#000000; fill-opacity:0.0; 
stroke:#000000; stroke-width:78.7402; stroke-opacity:1; 
stroke-linecap:round; stroke-linejoin:round;fill:none"
d="M 76069.3,48712.1
76315.3,48466.1
76069.3,48220.1
75823.3,48466.1
Z" /> 
<path d="M18647 19809
L19159 20321
" />
<path d="M19159 19809
L18647 20321
" />
<circle cx="18903.1" cy="20065.4" r="255.906" /> 
<path d="M18647 21809
L19159 22321
" />
<path d="M19159 21809
L18647 22321
" />
<circle cx="18903.1" cy="22065.4" r="255.906" /> 
<path d="M18647 23809
L19159 24321
" />
<path d="M19159 23809
L18647 24321
" />
<circle cx="18903.1" cy="24065.4" r="255.906" /> 
<path d="M18647 28667
L19159 29179
" />
<path d="M19159 28667
L18647 29179
" />
<circle cx="18903.1" cy="28923.6" r="255.906" /> 
<path d="M18647 30667
L19159 31179
" />
<path d="M19159 30667
L18647 31179
" />
<circle cx="18903.1" cy="30923.6" r="255.906" /> 
<path d="M18647 32667
L19159 33179
" />
<path d="M19159 32667
L18647 33179
" />
<circle cx="18903.1" cy="32923.6" r="255.906" /> 
<path d="M18647 37557
L19159 38069
" />
<path d="M19159 37557
L18647 38069
" />
<circle cx="18903.1" cy="37813.4" r="255.906" /> 
<path d="M18647 39557
L19159 40069
" />
<path d="M19159 39557
L18647 40069
" />
<circle cx="18903.1" cy="39813.4" r="255.906" /> 
<path d="M18647 41557
L19159 42069
" />
<path d="M19159 41557
L18647 42069
" />
<circle cx="18903.1" cy="41813.4" r="255.906" /> 
<path d="M18647 46352
L19159 46864
" />
<path d="M19159 46352
L18647 46864
" />
<circle cx="18903.1" cy="46608.7" r="255.906" /> 
<path d="M18647 48352
L19159 48864
" />
<path d="M19159 48352
L18647 48864
" />
<circle cx="18903.1" cy="48608.7" r="255.906" /> 
<path d="M18647 50352
L19159 50864
" />
<path d="M19159 50352
L18647 50864
" />
<circle cx="18903.1" cy="50608.7" r="255.906" /> 
<path d="M22151 19447
L22662 19959
" />
<path d="M22662 19447
L22151 19959
" />
<circle cx="22407.1" cy="19703.1" r="255.906" /> 
<path d="M22151 24171
L22662 24683
" />
<path d="M22662 24171
L22151 24683
" />
<circle cx="22407.1" cy="24427.6" r="255.906" /> 
<path d="M22151 28305
L22662 28817
" />
<path d="M22662 28305
L22151 28817
" />
<circle cx="22407.1" cy="28561.4" r="255.906" /> 
<path d="M22151 33029
L22662 33541
" />
<path d="M22662 33029
L22151 33541
" />
<circle cx="22407.1" cy="33285.8" r="255.906" /> 
<path d="M22151 37163
L22662 37675
" />
<path d="M22662 37163
L22151 37675
" />
<circle cx="22407.1" cy="37419.7" r="255.906" /> 
<path d="M22151 41888
L22662 42400
" />
<path d="M22662 41888
L22151 42400
" />
<circle cx="22407.1" cy="42144.1" r="255.906" /> 
<path d="M22151 46022
L22662 46533
" />
<path d="M22662 46022
L22151 46533
" />
<circle cx="22407.1" cy="46278" r="255.906" /> 
<path d="M22151 50746
L22662 51258
" />
<path d="M22662 50746
L22151 51258
" />
<circle cx="22407.1" cy="51002.4" r="255.906" /> 
<path d="M26954 19447
L27466 19959
" />
<path d="M27466 19447
L26954 19959
" />
<circle cx="27210.2" cy="19703.1" r="255.906" /> 
<path d="M26954 24171
L27466 24683
" />
<path d="M27466 24171
L26954 24683
" />
<circle cx="27210.2" cy="24427.6" r="255.906" /> 
<path d="M26954 28305
L27466 28817
" />
<path d="M27466 28305
L26954 28817
" />
<circle cx="27210.2" cy="28561.4" r="255.906" /> 
<path d="M26954 33029
L27466 33541
" />
<path d="M27466 33029
L26954 33541
" />
<circle cx="27210.2" cy="33285.8" r="255.906" /> 
<path d="M26954 37163
L27466 37675
" />
<path d="M27466 37163
L26954 37675
" />
<circle cx="27210.2" cy="37419.7" r="255.906" /> 
<path d="M26954 41888
L27466 42400
" />
<path d="M27466 41888
L26954 42400
" />
<circle cx="27210.2" cy="42144.1" r="255.906" /> 
<path d="M26954 46022
L27466 46533
" />
<path d="M27466 46022
L26954 46533
" />
<circle cx="27210.2" cy="46278" r="255.906" /> 
<path d="M26954 50746
L27466 51258
" />
<path d="M27466 50746
L26954 51258
" />
<circle cx="27210.2" cy="51002.4" r="255.906" /> 
<path d="M79736 19422
L80248 19934
" />
<path d="M80248 19422
L79736 19934
" />
<circle cx="79992.1" cy="19678.7" r="255.906" /> 
<path d="M79736 24147
L80248 24659
" />
<path d="M80248 24147
L79736 24659
" />
<circle cx="79992.1" cy="24403.1" r="255.906" /> 
<path d="M79736 28281
L80248 28792
" />
<path d="M80248 28281
L79736 28792
" />
<circle cx="79992.1" cy="28537" r="255.906" /> 
<path d="M79736 33005
L80248 33517
" />
<path d="M80248 33005
L79736 33517
" />
<circle cx="79992.1" cy="33261.4" r="255.906" /> 
<path d="M79736 37139
L80248 37651
" />
<path d="M80248 37139
L79736 37651
" />
<circle cx="79992.1" cy="37395.3" r="255.906" /> 
<path d="M79736 41863
L80248 42375
" />
<path d="M80248 41863
L79736 42375
" />
<circle cx="79992.1" cy="42119.7" r="255.906" /> 
<path d="M79736 45997
L80248 46509
" />
<path d="M80248 45997
L79736 46509
" />
<circle cx="79992.1" cy="46253.5" r="255.906" /> 
<path d="M79736 50722
L80248 51233
" />
<path d="M80248 50722
L79736 51233
" />
<circle cx="79992.1" cy="50978" r="255.906" /> 
<path d="M84539 19422
L85051 19934
" />
<path d="M85051 19422
L84539 19934
" />
<circle cx="84795.3" cy="19678.7" r="255.906" /> 
<path d="M84539 24147
L85051 24659
" />
<path d="M85051 24147
L84539 24659
" />
<circle cx="84795.3" cy="24403.1" r="255.906" /> 
<path d="M84539 28281
L85051 28792
" />
<path d="M85051 28281
L84539 28792
" />
<circle cx="84795.3" cy="28537" r="255.906" /> 
<path d="M84539 33005
L85051 33517
" />
<path d="M85051 33005
L84539 33517
" />
<circle cx="84795.3" cy="33261.4" r="255.906" /> 
<path d="M84539 37139
L85051 37651
" />
<path d="M85051 37139
L84539 37651
" />
<circle cx="84795.3" cy="37395.3" r="255.906" /> 
<path d="M84539 41863
L85051 42375
" />
<path d="M85051 41863
L84539 42375
" />
<circle cx="84795.3" cy="42119.7" r="255.906" /> 
<path d="M84539 45997
L85051 46509
" />
<path d="M85051 45997
L84539 46509
" />
<circle cx="84795.3" cy="46253.5" r="255.906" /> 
<path d="M84539 50722
L85051 51233
" />
<path d="M85051 50722
L84539 51233
" />
<circle cx="84795.3" cy="50978" r="255.906" /> 
<path d="M88043 19785
L88555 20296
" />
<path d="M88555 19785
L88043 20296
" />
<circle cx="88299.2" cy="20040.9" r="255.906" /> 
<path d="M88043 21785
L88555 22296
" />
<path d="M88555 21785
L88043 22296
" />
<circle cx="88299.2" cy="22040.9" r="255.906" /> 
<path d="M88043 23785
L88555 24296
" />
<path d="M88555 23785
L88043 24296
" />
<circle cx="88299.2" cy="24040.9" r="255.906" /> 
<path d="M88043 28643
L88555 29155
" />
<path d="M88555 28643
L88043 29155
" />
<circle cx="88299.2" cy="28899.2" r="255.906" /> 
<path d="M88043 30643
L88555 31155
" />
<path d="M88555 30643
L88043 31155
" />
<circle cx="88299.2" cy="30899.2" r="255.906" /> 
<path d="M88043 32643
L88555 33155
" />
<path d="M88555 32643
L88043 33155
" />
<circle cx="88299.2" cy="32899.2" r="255.906" /> 
<path d="M88043 37501
L88555 38013
" />
<path d="M88555 37501
L88043 38013
" />
<circle cx="88299.2" cy="37757.5" r="255.906" /> 
<path d="M88043 39501
L88555 40013
" />
<path d="M88555 39501
L88043 40013
" />
<circle cx="88299.2" cy="39757.5" r="255.906" /> 
<path d="M88043 41501
L88555 42013
" />
<path d="M88555 41501
L88043 42013
" />
<circle cx="88299.2" cy="41757.5" r="255.906" /> 
<path d="M88043 46359
L88555 46871
" />
<path d="M88555 46359
L88043 46871
" />
<circle cx="88299.2" cy="46615.7" r="255.906" /> 
<path d="M88043 48359
L88555 48871
" />
<path d="M88555 48359
L88043 48871
" />
<circle cx="88299.2" cy="48615.7" r="255.906" /> 
<path d="M88043 50359
L88555 50871
" />
<path d="M88555 50359
L88043 50871
" />
<circle cx="88299.2" cy="50615.7" r="255.906" /> 
<path d="M27722 21789
L28273 22340
" />
<path d="M28273 21789
L27722 22340
" />
<path d="M27997 21789
L27997 22340
" />
<path d="M27722 22065
L28273 22065
" />
<path d="M27722 30648
L28273 31199
" />
<path d="M28273 30648
L27722 31199
" />
<path d="M27997 30648
L27997 31199
" />
<path d="M27722 30923
L28273 30923
" />
<path d="M27722 39506
L28273 40057
" />
<path d="M28273 39506
L27722 40057
" />
<path d="M27997 39506
L27997 40057
" />
<path d="M27722 39781
L28273 39781
" />
<path d="M27722 48364
L28273 48915
" />
<path d="M28273 48364
L27722 48915
" />
<path d="M27997 48364
L27997 48915
" />
<path d="M27722 48640
L28273 48640
" />
<path d="M78929 21765
L79480 22316
" />
<path d="M79480 21765
L78929 22316
" />
<path d="M79204 21765
L79204 22316
" />
<path d="M78929 22040
L79480 22040
" />
<path d="M78929 30623
L79480 31174
" />
<path d="M79480 30623
L78929 31174
" />
<path d="M79204 30623
L79204 31174
" />
<path d="M78929 30899
L79480 30899
" />
<path d="M78929 39481
L79480 40033
" />
<path d="M79480 39481
L78929 40033
" />
<path d="M79204 39481
L79204 40033
" />
<path d="M78929 39757
L79480 39757
" />
<path d="M78929 48340
L79480 48891
" />
<path d="M79480 48340
L78929 48891
" />
<path d="M79204 48340
L79204 48891
" />
<path d="M78929 48615
L79480 48615
" />
<path d="M14960 16929
L15747 17716
" />
<path d="M15747 16929
L14960 17716
" />
<path style="fill:#000000; fill-opacity:0.0; 
stroke:#000000; stroke-width:78.7402; stroke-opacity:1; 
stroke-linecap:round; stroke-linejoin:round;fill:none"
d="M 15632.6,17601.1
15632.6,17044.6
15076.1,17044.6
15076.1,17601.1
Z" /> 
<path d="M14960 53149
L15747 53936
" />
<path d="M15747 53149
L14960 53936
" />
<path style="fill:#000000; fill-opacity:0.0; 
stroke:#000000; stroke-width:78.7402; stroke-opacity:1; 
stroke-linecap:round; stroke-linejoin:round;fill:none"
d="M 15632.6,53821.6
15632.6,53265.1
15076.1,53265.1
15076.1,53821.6
Z" /> 
<path d="M90551 16929
L91338 17716
" />
<path d="M91338 16929
L90551 17716
" />
<path style="fill:#000000; fill-opacity:0.0; 
stroke:#000000; stroke-width:78.7402; stroke-opacity:1; 
stroke-linecap:round; stroke-linejoin:round;fill:none"
d="M 91223.1,17601.1
91223.1,17044.6
90666.6,17044.6
90666.6,17601.1
Z" /> 
<path d="M90551 53149
L91338 53936
" />
<path d="M91338 53149
L90551 53936
" />
<path style="fill:#000000; fill-opacity:0.0; 
stroke:#000000; stroke-width:78.7402; stroke-opacity:1; 
stroke-linecap:round; stroke-linejoin:round;fill:none"
d="M 91223.1,53821.6
91223.1,53265.1
90666.6,53265.1
90666.6,53821.6
Z" /> 
<path d="M50377 52647
L51283 53553
" />
<path d="M51283 52647
L50377 53553
" />
<path style="fill:#000000; fill-opacity:0.0; 
stroke:#000000; stroke-width:78.7402; stroke-opacity:1; 
stroke-linecap:round; stroke-linejoin:round;fill:none"
d="M 50830,53553
51283,53100
50830,52647
50377,53100
Z" /> 
<path d="M55117 52647
L56023 53553
" />
<path d="M56023 52647
L55117 53553
" />
<path style="fill:#000000; fill-opacity:0.0; 
stroke:#000000; stroke-width:78.7402; stroke-opacity:1; 
stroke-linecap:round; stroke-linejoin:round;fill:none"
d="M 55570,53553
56023,53100
55570,52647
55117,53100
Z" /> 
</g>
<g style="fill:#000000; fill-opacity:0.0; 
stroke:#000000; stroke-width:118.11; stroke-opacity:1; 
stroke-linecap:round; stroke-linejoin:round;">
<text x="14557.1" y="57017.7"
textLength="8772.89" font-size="1574.8" lengthAdjust="spacingAndGlyphs"
text-anchor="start" opacity="0">Drill Map:</text>
<path d="M14897 56961
L14897 55780
L15178 55780
L15347 55836
L15459 55949
L15516 56061
L15572 56286
L15572 56455
L15516 56680
L15459 56792
L15347 56905
L15178 56961
L14897 56961
" />
<path d="M16078 56961
L16078 56174
" />
<path d="M16078 56399
L16134 56286
L16190 56230
L16303 56174
L16415 56174
" />
<path d="M16809 56961
L16809 56174
" />
<path d="M16809 55780
L16753 55836
L16809 55892
L16865 55836
L16809 55780
L16809 55892
" />
<path d="M17540 56961
L17428 56905
L17372 56792
L17372 55780
" />
<path d="M18159 56961
L18046 56905
L17990 56792
L17990 55780
" />
<path d="M19509 56961
L19509 55780
L19902 56624
L20296 55780
L20296 56961
" />
<path d="M21365 56961
L21365 56342
L21309 56230
L21196 56174
L20971 56174
L20859 56230
" />
<path d="M21365 56905
L21252 56961
L20971 56961
L20859 56905
L20802 56792
L20802 56680
L20859 56567
L20971 56511
L21252 56511
L21365 56455
" />
<path d="M21927 56174
L21927 57355
" />
<path d="M21927 56230
L22040 56174
L22265 56174
L22377 56230
L22433 56286
L22490 56399
L22490 56736
L22433 56848
L22377 56905
L22265 56961
L22040 56961
L21927 56905
" />
<path d="M22996 56848
L23052 56905
L22996 56961
L22940 56905
L22996 56848
L22996 56961
" />
<path d="M22996 56230
L23052 56286
L22996 56342
L22940 56286
L22996 56230
L22996 56342
" />
<path d="M13454 58749
L13769 59064
" />
<path d="M13769 58749
L13454 59064
" />
<text x="14557.1" y="59498"
textLength="28802" font-size="1574.8" lengthAdjust="spacingAndGlyphs"
text-anchor="start" opacity="0">0.800mm / 0.0315" (84 holes)</text>
<path d="M15122 58260
L15234 58260
L15347 58316
L15403 58373
L15459 58485
L15516 58710
L15516 58991
L15459 59216
L15403 59329
L15347 59385
L15234 59441
L15122 59441
L15009 59385
L14953 59329
L14897 59216
L14841 58991
L14841 58710
L14897 58485
L14953 58373
L15009 58316
L15122 58260
" />
<path d="M16022 59329
L16078 59385
L16022 59441
L15965 59385
L16022 59329
L16022 59441
" />
<path d="M16753 58766
L16640 58710
L16584 58654
L16528 58541
L16528 58485
L16584 58373
L16640 58316
L16753 58260
L16978 58260
L17090 58316
L17147 58373
L17203 58485
L17203 58541
L17147 58654
L17090 58710
L16978 58766
L16753 58766
L16640 58823
L16584 58879
L16528 58991
L16528 59216
L16584 59329
L16640 59385
L16753 59441
L16978 59441
L17090 59385
L17147 59329
L17203 59216
L17203 58991
L17147 58879
L17090 58823
L16978 58766
" />
<path d="M17934 58260
L18046 58260
L18159 58316
L18215 58373
L18271 58485
L18328 58710
L18328 58991
L18271 59216
L18215 59329
L18159 59385
L18046 59441
L17934 59441
L17821 59385
L17765 59329
L17709 59216
L17653 58991
L17653 58710
L17709 58485
L17765 58373
L17821 58316
L17934 58260
" />
<path d="M19059 58260
L19171 58260
L19284 58316
L19340 58373
L19396 58485
L19453 58710
L19453 58991
L19396 59216
L19340 59329
L19284 59385
L19171 59441
L19059 59441
L18946 59385
L18890 59329
L18834 59216
L18778 58991
L18778 58710
L18834 58485
L18890 58373
L18946 58316
L19059 58260
" />
<path d="M19959 59441
L19959 58654
" />
<path d="M19959 58766
L20015 58710
L20127 58654
L20296 58654
L20409 58710
L20465 58823
L20465 59441
" />
<path d="M20465 58823
L20521 58710
L20634 58654
L20802 58654
L20915 58710
L20971 58823
L20971 59441
" />
<path d="M21534 59441
L21534 58654
" />
<path d="M21534 58766
L21590 58710
L21702 58654
L21871 58654
L21983 58710
L22040 58823
L22040 59441
" />
<path d="M22040 58823
L22096 58710
L22208 58654
L22377 58654
L22490 58710
L22546 58823
L22546 59441
" />
<path d="M24852 58204
L23839 59723
" />
<path d="M26370 58260
L26483 58260
L26595 58316
L26652 58373
L26708 58485
L26764 58710
L26764 58991
L26708 59216
L26652 59329
L26595 59385
L26483 59441
L26370 59441
L26258 59385
L26202 59329
L26145 59216
L26089 58991
L26089 58710
L26145 58485
L26202 58373
L26258 58316
L26370 58260
" />
<path d="M27270 59329
L27327 59385
L27270 59441
L27214 59385
L27270 59329
L27270 59441
" />
<path d="M28058 58260
L28170 58260
L28283 58316
L28339 58373
L28395 58485
L28451 58710
L28451 58991
L28395 59216
L28339 59329
L28283 59385
L28170 59441
L28058 59441
L27945 59385
L27889 59329
L27833 59216
L27776 58991
L27776 58710
L27833 58485
L27889 58373
L27945 58316
L28058 58260
" />
<path d="M28845 58260
L29576 58260
L29183 58710
L29351 58710
L29464 58766
L29520 58823
L29576 58935
L29576 59216
L29520 59329
L29464 59385
L29351 59441
L29014 59441
L28901 59385
L28845 59329
" />
<path d="M30701 59441
L30026 59441
" />
<path d="M30364 59441
L30364 58260
L30251 58429
L30139 58541
L30026 58598
" />
<path d="M31770 58260
L31207 58260
L31151 58823
L31207 58766
L31320 58710
L31601 58710
L31714 58766
L31770 58823
L31826 58935
L31826 59216
L31770 59329
L31714 59385
L31601 59441
L31320 59441
L31207 59385
L31151 59329
" />
<path d="M32276 58260
L32276 58485
" />
<path d="M32726 58260
L32726 58485
" />
<path d="M34469 59891
L34413 59835
L34301 59666
L34244 59554
L34188 59385
L34132 59104
L34132 58879
L34188 58598
L34244 58429
L34301 58316
L34413 58148
L34469 58091
" />
<path d="M35088 58766
L34976 58710
L34919 58654
L34863 58541
L34863 58485
L34919 58373
L34976 58316
L35088 58260
L35313 58260
L35426 58316
L35482 58373
L35538 58485
L35538 58541
L35482 58654
L35426 58710
L35313 58766
L35088 58766
L34976 58823
L34919 58879
L34863 58991
L34863 59216
L34919 59329
L34976 59385
L35088 59441
L35313 59441
L35426 59385
L35482 59329
L35538 59216
L35538 58991
L35482 58879
L35426 58823
L35313 58766
" />
<path d="M36550 58654
L36550 59441
" />
<path d="M36269 58204
L35988 59048
L36719 59048
" />
<path d="M38069 59441
L38069 58260
" />
<path d="M38575 59441
L38575 58823
L38519 58710
L38406 58654
L38238 58654
L38125 58710
L38069 58766
" />
<path d="M39306 59441
L39194 59385
L39138 59329
L39081 59216
L39081 58879
L39138 58766
L39194 58710
L39306 58654
L39475 58654
L39588 58710
L39644 58766
L39700 58879
L39700 59216
L39644 59329
L39588 59385
L39475 59441
L39306 59441
" />
<path d="M40375 59441
L40262 59385
L40206 59273
L40206 58260
" />
<path d="M41275 59385
L41162 59441
L40937 59441
L40825 59385
L40769 59273
L40769 58823
L40825 58710
L40937 58654
L41162 58654
L41275 58710
L41331 58823
L41331 58935
L40769 59048
" />
<path d="M41781 59385
L41893 59441
L42118 59441
L42231 59385
L42287 59273
L42287 59216
L42231 59104
L42118 59048
L41950 59048
L41837 58991
L41781 58879
L41781 58823
L41837 58710
L41950 58654
L42118 58654
L42231 58710
" />
<path d="M42681 59891
L42737 59835
L42850 59666
L42906 59554
L42962 59385
L43018 59104
L43018 58879
L42962 58598
L42906 58429
L42850 58316
L42737 58148
L42681 58091
" />
<circle cx="13582.7" cy="60466.5" r="187" /> 
<text x="14557.1" y="61057.1"
textLength="27677.2" font-size="1574.8" lengthAdjust="spacingAndGlyphs"
text-anchor="start" opacity="0">0.950mm / 0.0374" (4 holes)</text>
<path d="M15122 59819
L15234 59819
L15347 59875
L15403 59932
L15459 60044
L15516 60269
L15516 60550
L15459 60775
L15403 60888
L15347 60944
L15234 61000
L15122 61000
L15009 60944
L14953 60888
L14897 60775
L14841 60550
L14841 60269
L14897 60044
L14953 59932
L15009 59875
L15122 59819
" />
<path d="M16022 60888
L16078 60944
L16022 61000
L15965 60944
L16022 60888
L16022 61000
" />
<path d="M16640 61000
L16865 61000
L16978 60944
L17034 60888
L17147 60719
L17203 60494
L17203 60044
L17147 59932
L17090 59875
L16978 59819
L16753 59819
L16640 59875
L16584 59932
L16528 60044
L16528 60325
L16584 60438
L16640 60494
L16753 60550
L16978 60550
L17090 60494
L17147 60438
L17203 60325
" />
<path d="M18271 59819
L17709 59819
L17653 60382
L17709 60325
L17821 60269
L18103 60269
L18215 60325
L18271 60382
L18328 60494
L18328 60775
L18271 60888
L18215 60944
L18103 61000
L17821 61000
L17709 60944
L17653 60888
" />
<path d="M19059 59819
L19171 59819
L19284 59875
L19340 59932
L19396 60044
L19453 60269
L19453 60550
L19396 60775
L19340 60888
L19284 60944
L19171 61000
L19059 61000
L18946 60944
L18890 60888
L18834 60775
L18778 60550
L18778 60269
L18834 60044
L18890 59932
L18946 59875
L19059 59819
" />
<path d="M19959 61000
L19959 60213
" />
<path d="M19959 60325
L20015 60269
L20127 60213
L20296 60213
L20409 60269
L20465 60382
L20465 61000
" />
<path d="M20465 60382
L20521 60269
L20634 60213
L20802 60213
L20915 60269
L20971 60382
L20971 61000
" />
<path d="M21534 61000
L21534 60213
" />
<path d="M21534 60325
L21590 60269
L21702 60213
L21871 60213
L21983 60269
L22040 60382
L22040 61000
" />
<path d="M22040 60382
L22096 60269
L22208 60213
L22377 60213
L22490 60269
L22546 60382
L22546 61000
" />
<path d="M24852 59763
L23839 61282
" />
<path d="M26370 59819
L26483 59819
L26595 59875
L26652 59932
L26708 60044
L26764 60269
L26764 60550
L26708 60775
L26652 60888
L26595 60944
L26483 61000
L26370 61000
L26258 60944
L26202 60888
L26145 60775
L26089 60550
L26089 60269
L26145 60044
L26202 59932
L26258 59875
L26370 59819
" />
<path d="M27270 60888
L27327 60944
L27270 61000
L27214 60944
L27270 60888
L27270 61000
" />
<path d="M28058 59819
L28170 59819
L28283 59875
L28339 59932
L28395 60044
L28451 60269
L28451 60550
L28395 60775
L28339 60888
L28283 60944
L28170 61000
L28058 61000
L27945 60944
L27889 60888
L27833 60775
L27776 60550
L27776 60269
L27833 60044
L27889 59932
L27945 59875
L28058 59819
" />
<path d="M28845 59819
L29576 59819
L29183 60269
L29351 60269
L29464 60325
L29520 60382
L29576 60494
L29576 60775
L29520 60888
L29464 60944
L29351 61000
L29014 61000
L28901 60944
L28845 60888
" />
<path d="M29970 59819
L30757 59819
L30251 61000
" />
<path d="M31714 60213
L31714 61000
" />
<path d="M31432 59763
L31151 60607
L31882 60607
" />
<path d="M32276 59819
L32276 60044
" />
<path d="M32726 59819
L32726 60044
" />
<path d="M34469 61450
L34413 61394
L34301 61225
L34244 61113
L34188 60944
L34132 60663
L34132 60438
L34188 60157
L34244 59988
L34301 59875
L34413 59707
L34469 59651
" />
<path d="M35426 60213
L35426 61000
" />
<path d="M35144 59763
L34863 60607
L35594 60607
" />
<path d="M36944 61000
L36944 59819
" />
<path d="M37450 61000
L37450 60382
L37394 60269
L37282 60213
L37113 60213
L37000 60269
L36944 60325
" />
<path d="M38181 61000
L38069 60944
L38013 60888
L37956 60775
L37956 60438
L38013 60325
L38069 60269
L38181 60213
L38350 60213
L38463 60269
L38519 60325
L38575 60438
L38575 60775
L38519 60888
L38463 60944
L38350 61000
L38181 61000
" />
<path d="M39250 61000
L39138 60944
L39081 60832
L39081 59819
" />
<path d="M40150 60944
L40037 61000
L39812 61000
L39700 60944
L39644 60832
L39644 60382
L39700 60269
L39812 60213
L40037 60213
L40150 60269
L40206 60382
L40206 60494
L39644 60607
" />
<path d="M40656 60944
L40769 61000
L40994 61000
L41106 60944
L41162 60832
L41162 60775
L41106 60663
L40994 60607
L40825 60607
L40712 60550
L40656 60438
L40656 60382
L40712 60269
L40825 60213
L40994 60213
L41106 60269
" />
<path d="M41556 61450
L41612 61394
L41725 61225
L41781 61113
L41837 60944
L41893 60663
L41893 60438
L41837 60157
L41781 59988
L41725 59875
L41612 59707
L41556 59651
" />
<path d="M13572 61828
L13572 62222
" />
<path d="M13375 62025
L13769 62025
" />
<text x="14557.1" y="62616.1"
textLength="28802" font-size="1574.8" lengthAdjust="spacingAndGlyphs"
text-anchor="start" opacity="0">1.000mm / 0.0394" (36 holes)</text>
<path d="M15516 62559
L14841 62559
" />
<path d="M15178 62559
L15178 61378
L15066 61547
L14953 61660
L14841 61716
" />
<path d="M16022 62447
L16078 62503
L16022 62559
L15965 62503
L16022 62447
L16022 62559
" />
<path d="M16809 61378
L16922 61378
L17034 61435
L17090 61491
L17147 61603
L17203 61828
L17203 62109
L17147 62334
L17090 62447
L17034 62503
L16922 62559
L16809 62559
L16697 62503
L16640 62447
L16584 62334
L16528 62109
L16528 61828
L16584 61603
L16640 61491
L16697 61435
L16809 61378
" />
<path d="M17934 61378
L18046 61378
L18159 61435
L18215 61491
L18271 61603
L18328 61828
L18328 62109
L18271 62334
L18215 62447
L18159 62503
L18046 62559
L17934 62559
L17821 62503
L17765 62447
L17709 62334
L17653 62109
L17653 61828
L17709 61603
L17765 61491
L17821 61435
L17934 61378
" />
<path d="M19059 61378
L19171 61378
L19284 61435
L19340 61491
L19396 61603
L19453 61828
L19453 62109
L19396 62334
L19340 62447
L19284 62503
L19171 62559
L19059 62559
L18946 62503
L18890 62447
L18834 62334
L18778 62109
L18778 61828
L18834 61603
L18890 61491
L18946 61435
L19059 61378
" />
<path d="M19959 62559
L19959 61772
" />
<path d="M19959 61884
L20015 61828
L20127 61772
L20296 61772
L20409 61828
L20465 61941
L20465 62559
" />
<path d="M20465 61941
L20521 61828
L20634 61772
L20802 61772
L20915 61828
L20971 61941
L20971 62559
" />
<path d="M21534 62559
L21534 61772
" />
<path d="M21534 61884
L21590 61828
L21702 61772
L21871 61772
L21983 61828
L22040 61941
L22040 62559
" />
<path d="M22040 61941
L22096 61828
L22208 61772
L22377 61772
L22490 61828
L22546 61941
L22546 62559
" />
<path d="M24852 61322
L23839 62841
" />
<path d="M26370 61378
L26483 61378
L26595 61435
L26652 61491
L26708 61603
L26764 61828
L26764 62109
L26708 62334
L26652 62447
L26595 62503
L26483 62559
L26370 62559
L26258 62503
L26202 62447
L26145 62334
L26089 62109
L26089 61828
L26145 61603
L26202 61491
L26258 61435
L26370 61378
" />
<path d="M27270 62447
L27327 62503
L27270 62559
L27214 62503
L27270 62447
L27270 62559
" />
<path d="M28058 61378
L28170 61378
L28283 61435
L28339 61491
L28395 61603
L28451 61828
L28451 62109
L28395 62334
L28339 62447
L28283 62503
L28170 62559
L28058 62559
L27945 62503
L27889 62447
L27833 62334
L27776 62109
L27776 61828
L27833 61603
L27889 61491
L27945 61435
L28058 61378
" />
<path d="M28845 61378
L29576 61378
L29183 61828
L29351 61828
L29464 61884
L29520 61941
L29576 62053
L29576 62334
L29520 62447
L29464 62503
L29351 62559
L29014 62559
L28901 62503
L28845 62447
" />
<path d="M30139 62559
L30364 62559
L30476 62503
L30532 62447
L30645 62278
L30701 62053
L30701 61603
L30645 61491
L30589 61435
L30476 61378
L30251 61378
L30139 61435
L30082 61491
L30026 61603
L30026 61884
L30082 61997
L30139 62053
L30251 62109
L30476 62109
L30589 62053
L30645 61997
L30701 61884
" />
<path d="M31714 61772
L31714 62559
" />
<path d="M31432 61322
L31151 62166
L31882 62166
" />
<path d="M32276 61378
L32276 61603
" />
<path d="M32726 61378
L32726 61603
" />
<path d="M34469 63009
L34413 62953
L34301 62784
L34244 62672
L34188 62503
L34132 62222
L34132 61997
L34188 61716
L34244 61547
L34301 61435
L34413 61266
L34469 61210
" />
<path d="M34807 61378
L35538 61378
L35144 61828
L35313 61828
L35426 61884
L35482 61941
L35538 62053
L35538 62334
L35482 62447
L35426 62503
L35313 62559
L34976 62559
L34863 62503
L34807 62447
" />
<path d="M36550 61378
L36325 61378
L36213 61435
L36157 61491
L36044 61660
L35988 61884
L35988 62334
L36044 62447
L36100 62503
L36213 62559
L36438 62559
L36550 62503
L36607 62447
L36663 62334
L36663 62053
L36607 61941
L36550 61884
L36438 61828
L36213 61828
L36100 61884
L36044 61941
L35988 62053
" />
<path d="M38069 62559
L38069 61378
" />
<path d="M38575 62559
L38575 61941
L38519 61828
L38406 61772
L38238 61772
L38125 61828
L38069 61884
" />
<path d="M39306 62559
L39194 62503
L39138 62447
L39081 62334
L39081 61997
L39138 61884
L39194 61828
L39306 61772
L39475 61772
L39588 61828
L39644 61884
L39700 61997
L39700 62334
L39644 62447
L39588 62503
L39475 62559
L39306 62559
" />
<path d="M40375 62559
L40262 62503
L40206 62391
L40206 61378
" />
<path d="M41275 62503
L41162 62559
L40937 62559
L40825 62503
L40769 62391
L40769 61941
L40825 61828
L40937 61772
L41162 61772
L41275 61828
L41331 61941
L41331 62053
L40769 62166
" />
<path d="M41781 62503
L41893 62559
L42118 62559
L42231 62503
L42287 62391
L42287 62334
L42231 62222
L42118 62166
L41950 62166
L41837 62109
L41781 61997
L41781 61941
L41837 61828
L41950 61772
L42118 61772
L42231 61828
" />
<path d="M42681 63009
L42737 62953
L42850 62784
L42906 62672
L42962 62503
L43018 62222
L43018 61997
L42962 61716
L42906 61547
L42850 61435
L42737 61266
L42681 61210
" />
<path style="fill:#000000; fill-opacity:0.0; 
stroke:#000000; stroke-width:118.11; stroke-opacity:1; 
stroke-linecap:round; stroke-linejoin:round;fill:none"
d="M 13712,63723.9
13712,63445.3
13433.4,63445.3
13433.4,63723.9
Z" /> 
<text x="14557.1" y="64175.2"
textLength="28802" font-size="1574.8" lengthAdjust="spacingAndGlyphs"
text-anchor="start" opacity="0">1.001mm / 0.0394" (16 holes)</text>
<path d="M15516 64118
L14841 64118
" />
<path d="M15178 64118
L15178 62937
L15066 63106
L14953 63219
L14841 63275
" />
<path d="M16022 64006
L16078 64062
L16022 64118
L15965 64062
L16022 64006
L16022 64118
" />
<path d="M16809 62937
L16922 62937
L17034 62994
L17090 63050
L17147 63162
L17203 63387
L17203 63669
L17147 63893
L17090 64006
L17034 64062
L16922 64118
L16809 64118
L16697 64062
L16640 64006
L16584 63893
L16528 63669
L16528 63387
L16584 63162
L16640 63050
L16697 62994
L16809 62937
" />
<path d="M17934 62937
L18046 62937
L18159 62994
L18215 63050
L18271 63162
L18328 63387
L18328 63669
L18271 63893
L18215 64006
L18159 64062
L18046 64118
L17934 64118
L17821 64062
L17765 64006
L17709 63893
L17653 63669
L17653 63387
L17709 63162
L17765 63050
L17821 62994
L17934 62937
" />
<path d="M19453 64118
L18778 64118
" />
<path d="M19115 64118
L19115 62937
L19003 63106
L18890 63219
L18778 63275
" />
<path d="M19959 64118
L19959 63331
" />
<path d="M19959 63444
L20015 63387
L20127 63331
L20296 63331
L20409 63387
L20465 63500
L20465 64118
" />
<path d="M20465 63500
L20521 63387
L20634 63331
L20802 63331
L20915 63387
L20971 63500
L20971 64118
" />
<path d="M21534 64118
L21534 63331
" />
<path d="M21534 63444
L21590 63387
L21702 63331
L21871 63331
L21983 63387
L22040 63500
L22040 64118
" />
<path d="M22040 63500
L22096 63387
L22208 63331
L22377 63331
L22490 63387
L22546 63500
L22546 64118
" />
<path d="M24852 62881
L23839 64400
" />
<path d="M26370 62937
L26483 62937
L26595 62994
L26652 63050
L26708 63162
L26764 63387
L26764 63669
L26708 63893
L26652 64006
L26595 64062
L26483 64118
L26370 64118
L26258 64062
L26202 64006
L26145 63893
L26089 63669
L26089 63387
L26145 63162
L26202 63050
L26258 62994
L26370 62937
" />
<path d="M27270 64006
L27327 64062
L27270 64118
L27214 64062
L27270 64006
L27270 64118
" />
<path d="M28058 62937
L28170 62937
L28283 62994
L28339 63050
L28395 63162
L28451 63387
L28451 63669
L28395 63893
L28339 64006
L28283 64062
L28170 64118
L28058 64118
L27945 64062
L27889 64006
L27833 63893
L27776 63669
L27776 63387
L27833 63162
L27889 63050
L27945 62994
L28058 62937
" />
<path d="M28845 62937
L29576 62937
L29183 63387
L29351 63387
L29464 63444
L29520 63500
L29576 63612
L29576 63893
L29520 64006
L29464 64062
L29351 64118
L29014 64118
L28901 64062
L28845 64006
" />
<path d="M30139 64118
L30364 64118
L30476 64062
L30532 64006
L30645 63837
L30701 63612
L30701 63162
L30645 63050
L30589 62994
L30476 62937
L30251 62937
L30139 62994
L30082 63050
L30026 63162
L30026 63444
L30082 63556
L30139 63612
L30251 63669
L30476 63669
L30589 63612
L30645 63556
L30701 63444
" />
<path d="M31714 63331
L31714 64118
" />
<path d="M31432 62881
L31151 63725
L31882 63725
" />
<path d="M32276 62937
L32276 63162
" />
<path d="M32726 62937
L32726 63162
" />
<path d="M34469 64568
L34413 64512
L34301 64343
L34244 64231
L34188 64062
L34132 63781
L34132 63556
L34188 63275
L34244 63106
L34301 62994
L34413 62825
L34469 62769
" />
<path d="M35538 64118
L34863 64118
" />
<path d="M35201 64118
L35201 62937
L35088 63106
L34976 63219
L34863 63275
" />
<path d="M36550 62937
L36325 62937
L36213 62994
L36157 63050
L36044 63219
L35988 63444
L35988 63893
L36044 64006
L36100 64062
L36213 64118
L36438 64118
L36550 64062
L36607 64006
L36663 63893
L36663 63612
L36607 63500
L36550 63444
L36438 63387
L36213 63387
L36100 63444
L36044 63500
L35988 63612
" />
<path d="M38069 64118
L38069 62937
" />
<path d="M38575 64118
L38575 63500
L38519 63387
L38406 63331
L38238 63331
L38125 63387
L38069 63444
" />
<path d="M39306 64118
L39194 64062
L39138 64006
L39081 63893
L39081 63556
L39138 63444
L39194 63387
L39306 63331
L39475 63331
L39588 63387
L39644 63444
L39700 63556
L39700 63893
L39644 64006
L39588 64062
L39475 64118
L39306 64118
" />
<path d="M40375 64118
L40262 64062
L40206 63950
L40206 62937
" />
<path d="M41275 64062
L41162 64118
L40937 64118
L40825 64062
L40769 63950
L40769 63500
L40825 63387
L40937 63331
L41162 63331
L41275 63387
L41331 63500
L41331 63612
L40769 63725
" />
<path d="M41781 64062
L41893 64118
L42118 64118
L42231 64062
L42287 63950
L42287 63893
L42231 63781
L42118 63725
L41950 63725
L41837 63669
L41781 63556
L41781 63500
L41837 63387
L41950 63331
L42118 63331
L42231 63387
" />
<path d="M42681 64568
L42737 64512
L42850 64343
L42906 64231
L42962 64062
L43018 63781
L43018 63556
L42962 63275
L42906 63106
L42850 62994
L42737 62825
L42681 62769
" />
<path style="fill:#000000; fill-opacity:0.0; 
stroke:#000000; stroke-width:118.11; stroke-opacity:1; 
stroke-linecap:round; stroke-linejoin:round;fill:none"
d="M 13523.7,65389.7
13769.7,65143.7
13523.7,64897.7
13277.7,65143.7
Z" /> 
<text x="14557.1" y="65734.3"
textLength="28802" font-size="1574.8" lengthAdjust="spacingAndGlyphs"
text-anchor="start" opacity="0">1.250mm / 0.0492" (24 holes)</text>
<path d="M15516 65678
L14841 65678
" />
<path d="M15178 65678
L15178 64496
L15066 64665
L14953 64778
L14841 64834
" />
<path d="M16022 65565
L16078 65621
L16022 65678
L15965 65621
L16022 65565
L16022 65678
" />
<path d="M16528 64609
L16584 64553
L16697 64496
L16978 64496
L17090 64553
L17147 64609
L17203 64721
L17203 64834
L17147 65003
L16472 65678
L17203 65678
" />
<path d="M18271 64496
L17709 64496
L17653 65059
L17709 65003
L17821 64946
L18103 64946
L18215 65003
L18271 65059
L18328 65171
L18328 65453
L18271 65565
L18215 65621
L18103 65678
L17821 65678
L17709 65621
L17653 65565
" />
<path d="M19059 64496
L19171 64496
L19284 64553
L19340 64609
L19396 64721
L19453 64946
L19453 65228
L19396 65453
L19340 65565
L19284 65621
L19171 65678
L19059 65678
L18946 65621
L18890 65565
L18834 65453
L18778 65228
L18778 64946
L18834 64721
L18890 64609
L18946 64553
L19059 64496
" />
<path d="M19959 65678
L19959 64890
" />
<path d="M19959 65003
L20015 64946
L20127 64890
L20296 64890
L20409 64946
L20465 65059
L20465 65678
" />
<path d="M20465 65059
L20521 64946
L20634 64890
L20802 64890
L20915 64946
L20971 65059
L20971 65678
" />
<path d="M21534 65678
L21534 64890
" />
<path d="M21534 65003
L21590 64946
L21702 64890
L21871 64890
L21983 64946
L22040 65059
L22040 65678
" />
<path d="M22040 65059
L22096 64946
L22208 64890
L22377 64890
L22490 64946
L22546 65059
L22546 65678
" />
<path d="M24852 64440
L23839 65959
" />
<path d="M26370 64496
L26483 64496
L26595 64553
L26652 64609
L26708 64721
L26764 64946
L26764 65228
L26708 65453
L26652 65565
L26595 65621
L26483 65678
L26370 65678
L26258 65621
L26202 65565
L26145 65453
L26089 65228
L26089 64946
L26145 64721
L26202 64609
L26258 64553
L26370 64496
" />
<path d="M27270 65565
L27327 65621
L27270 65678
L27214 65621
L27270 65565
L27270 65678
" />
<path d="M28058 64496
L28170 64496
L28283 64553
L28339 64609
L28395 64721
L28451 64946
L28451 65228
L28395 65453
L28339 65565
L28283 65621
L28170 65678
L28058 65678
L27945 65621
L27889 65565
L27833 65453
L27776 65228
L27776 64946
L27833 64721
L27889 64609
L27945 64553
L28058 64496
" />
<path d="M29464 64890
L29464 65678
" />
<path d="M29183 64440
L28901 65284
L29633 65284
" />
<path d="M30139 65678
L30364 65678
L30476 65621
L30532 65565
L30645 65396
L30701 65171
L30701 64721
L30645 64609
L30589 64553
L30476 64496
L30251 64496
L30139 64553
L30082 64609
L30026 64721
L30026 65003
L30082 65115
L30139 65171
L30251 65228
L30476 65228
L30589 65171
L30645 65115
L30701 65003
" />
<path d="M31151 64609
L31207 64553
L31320 64496
L31601 64496
L31714 64553
L31770 64609
L31826 64721
L31826 64834
L31770 65003
L31095 65678
L31826 65678
" />
<path d="M32276 64496
L32276 64721
" />
<path d="M32726 64496
L32726 64721
" />
<path d="M34469 66127
L34413 66071
L34301 65902
L34244 65790
L34188 65621
L34132 65340
L34132 65115
L34188 64834
L34244 64665
L34301 64553
L34413 64384
L34469 64328
" />
<path d="M34863 64609
L34919 64553
L35032 64496
L35313 64496
L35426 64553
L35482 64609
L35538 64721
L35538 64834
L35482 65003
L34807 65678
L35538 65678
" />
<path d="M36550 64890
L36550 65678
" />
<path d="M36269 64440
L35988 65284
L36719 65284
" />
<path d="M38069 65678
L38069 64496
" />
<path d="M38575 65678
L38575 65059
L38519 64946
L38406 64890
L38238 64890
L38125 64946
L38069 65003
" />
<path d="M39306 65678
L39194 65621
L39138 65565
L39081 65453
L39081 65115
L39138 65003
L39194 64946
L39306 64890
L39475 64890
L39588 64946
L39644 65003
L39700 65115
L39700 65453
L39644 65565
L39588 65621
L39475 65678
L39306 65678
" />
<path d="M40375 65678
L40262 65621
L40206 65509
L40206 64496
" />
<path d="M41275 65621
L41162 65678
L40937 65678
L40825 65621
L40769 65509
L40769 65059
L40825 64946
L40937 64890
L41162 64890
L41275 64946
L41331 65059
L41331 65171
L40769 65284
" />
<path d="M41781 65621
L41893 65678
L42118 65678
L42231 65621
L42287 65509
L42287 65453
L42231 65340
L42118 65284
L41950 65284
L41837 65228
L41781 65115
L41781 65059
L41837 64946
L41950 64890
L42118 64890
L42231 64946
" />
<path d="M42681 66127
L42737 66071
L42850 65902
L42906 65790
L42962 65621
L43018 65340
L43018 65115
L42962 64834
L42906 64665
L42850 64553
L42737 64384
L42681 64328
" />
<path d="M13257 66446
L13769 66958
" />
<path d="M13769 66446
L13257 66958
" />
<circle cx="13513.8" cy="66702.8" r="255.906" /> 
<text x="14557.1" y="67293.3"
textLength="28802" font-size="1574.8" lengthAdjust="spacingAndGlyphs"
text-anchor="start" opacity="0">1.300mm / 0.0512" (56 holes)</text>
<path d="M15516 67237
L14841 67237
" />
<path d="M15178 67237
L15178 66055
L15066 66224
L14953 66337
L14841 66393
" />
<path d="M16022 67124
L16078 67180
L16022 67237
L15965 67180
L16022 67124
L16022 67237
" />
<path d="M16472 66055
L17203 66055
L16809 66505
L16978 66505
L17090 66562
L17147 66618
L17203 66730
L17203 67012
L17147 67124
L17090 67180
L16978 67237
L16640 67237
L16528 67180
L16472 67124
" />
<path d="M17934 66055
L18046 66055
L18159 66112
L18215 66168
L18271 66280
L18328 66505
L18328 66787
L18271 67012
L18215 67124
L18159 67180
L18046 67237
L17934 67237
L17821 67180
L17765 67124
L17709 67012
L17653 66787
L17653 66505
L17709 66280
L17765 66168
L17821 66112
L17934 66055
" />
<path d="M19059 66055
L19171 66055
L19284 66112
L19340 66168
L19396 66280
L19453 66505
L19453 66787
L19396 67012
L19340 67124
L19284 67180
L19171 67237
L19059 67237
L18946 67180
L18890 67124
L18834 67012
L18778 66787
L18778 66505
L18834 66280
L18890 66168
L18946 66112
L19059 66055
" />
<path d="M19959 67237
L19959 66449
" />
<path d="M19959 66562
L20015 66505
L20127 66449
L20296 66449
L20409 66505
L20465 66618
L20465 67237
" />
<path d="M20465 66618
L20521 66505
L20634 66449
L20802 66449
L20915 66505
L20971 66618
L20971 67237
" />
<path d="M21534 67237
L21534 66449
" />
<path d="M21534 66562
L21590 66505
L21702 66449
L21871 66449
L21983 66505
L22040 66618
L22040 67237
" />
<path d="M22040 66618
L22096 66505
L22208 66449
L22377 66449
L22490 66505
L22546 66618
L22546 67237
" />
<path d="M24852 65999
L23839 67518
" />
<path d="M26370 66055
L26483 66055
L26595 66112
L26652 66168
L26708 66280
L26764 66505
L26764 66787
L26708 67012
L26652 67124
L26595 67180
L26483 67237
L26370 67237
L26258 67180
L26202 67124
L26145 67012
L26089 66787
L26089 66505
L26145 66280
L26202 66168
L26258 66112
L26370 66055
" />
<path d="M27270 67124
L27327 67180
L27270 67237
L27214 67180
L27270 67124
L27270 67237
" />
<path d="M28058 66055
L28170 66055
L28283 66112
L28339 66168
L28395 66280
L28451 66505
L28451 66787
L28395 67012
L28339 67124
L28283 67180
L28170 67237
L28058 67237
L27945 67180
L27889 67124
L27833 67012
L27776 66787
L27776 66505
L27833 66280
L27889 66168
L27945 66112
L28058 66055
" />
<path d="M29520 66055
L28958 66055
L28901 66618
L28958 66562
L29070 66505
L29351 66505
L29464 66562
L29520 66618
L29576 66730
L29576 67012
L29520 67124
L29464 67180
L29351 67237
L29070 67237
L28958 67180
L28901 67124
" />
<path d="M30701 67237
L30026 67237
" />
<path d="M30364 67237
L30364 66055
L30251 66224
L30139 66337
L30026 66393
" />
<path d="M31151 66168
L31207 66112
L31320 66055
L31601 66055
L31714 66112
L31770 66168
L31826 66280
L31826 66393
L31770 66562
L31095 67237
L31826 67237
" />
<path d="M32276 66055
L32276 66280
" />
<path d="M32726 66055
L32726 66280
" />
<path d="M34469 67687
L34413 67630
L34301 67462
L34244 67349
L34188 67180
L34132 66899
L34132 66674
L34188 66393
L34244 66224
L34301 66112
L34413 65943
L34469 65887
" />
<path d="M35482 66055
L34919 66055
L34863 66618
L34919 66562
L35032 66505
L35313 66505
L35426 66562
L35482 66618
L35538 66730
L35538 67012
L35482 67124
L35426 67180
L35313 67237
L35032 67237
L34919 67180
L34863 67124
" />
<path d="M36550 66055
L36325 66055
L36213 66112
L36157 66168
L36044 66337
L35988 66562
L35988 67012
L36044 67124
L36100 67180
L36213 67237
L36438 67237
L36550 67180
L36607 67124
L36663 67012
L36663 66730
L36607 66618
L36550 66562
L36438 66505
L36213 66505
L36100 66562
L36044 66618
L35988 66730
" />
<path d="M38069 67237
L38069 66055
" />
<path d="M38575 67237
L38575 66618
L38519 66505
L38406 66449
L38238 66449
L38125 66505
L38069 66562
" />
<path d="M39306 67237
L39194 67180
L39138 67124
L39081 67012
L39081 66674
L39138 66562
L39194 66505
L39306 66449
L39475 66449
L39588 66505
L39644 66562
L39700 66674
L39700 67012
L39644 67124
L39588 67180
L39475 67237
L39306 67237
" />
<path d="M40375 67237
L40262 67180
L40206 67068
L40206 66055
" />
<path d="M41275 67180
L41162 67237
L40937 67237
L40825 67180
L40769 67068
L40769 66618
L40825 66505
L40937 66449
L41162 66449
L41275 66505
L41331 66618
L41331 66730
L40769 66843
" />
<path d="M41781 67180
L41893 67237
L42118 67237
L42231 67180
L42287 67068
L42287 67012
L42231 66899
L42118 66843
L41950 66843
L41837 66787
L41781 66674
L41781 66618
L41837 66505
L41950 66449
L42118 66449
L42231 66505
" />
<path d="M42681 67687
L42737 67630
L42850 67462
L42906 67349
L42962 67180
L43018 66899
L43018 66674
L42962 66393
L42906 66224
L42850 66112
L42737 65943
L42681 65887
" />
<path d="M13218 67986
L13769 68537
" />
<path d="M13769 67986
L13218 68537
" />
<path d="M13494 67986
L13494 68537
" />
<path d="M13218 68261
L13769 68261
" />
<text x="14557.1" y="68852.4"
textLength="27677.2" font-size="1574.8" lengthAdjust="spacingAndGlyphs"
text-anchor="start" opacity="0">1.400mm / 0.0551" (8 holes)</text>
<path d="M15516 68796
L14841 68796
" />
<path d="M15178 68796
L15178 67615
L15066 67783
L14953 67896
L14841 67952
" />
<path d="M16022 68683
L16078 68739
L16022 68796
L15965 68739
L16022 68683
L16022 68796
" />
<path d="M17090 68008
L17090 68796
" />
<path d="M16809 67558
L16528 68402
L17259 68402
" />
<path d="M17934 67615
L18046 67615
L18159 67671
L18215 67727
L18271 67839
L18328 68064
L18328 68346
L18271 68571
L18215 68683
L18159 68739
L18046 68796
L17934 68796
L17821 68739
L17765 68683
L17709 68571
L17653 68346
L17653 68064
L17709 67839
L17765 67727
L17821 67671
L17934 67615
" />
<path d="M19059 67615
L19171 67615
L19284 67671
L19340 67727
L19396 67839
L19453 68064
L19453 68346
L19396 68571
L19340 68683
L19284 68739
L19171 68796
L19059 68796
L18946 68739
L18890 68683
L18834 68571
L18778 68346
L18778 68064
L18834 67839
L18890 67727
L18946 67671
L19059 67615
" />
<path d="M19959 68796
L19959 68008
" />
<path d="M19959 68121
L20015 68064
L20127 68008
L20296 68008
L20409 68064
L20465 68177
L20465 68796
" />
<path d="M20465 68177
L20521 68064
L20634 68008
L20802 68008
L20915 68064
L20971 68177
L20971 68796
" />
<path d="M21534 68796
L21534 68008
" />
<path d="M21534 68121
L21590 68064
L21702 68008
L21871 68008
L21983 68064
L22040 68177
L22040 68796
" />
<path d="M22040 68177
L22096 68064
L22208 68008
L22377 68008
L22490 68064
L22546 68177
L22546 68796
" />
<path d="M24852 67558
L23839 69077
" />
<path d="M26370 67615
L26483 67615
L26595 67671
L26652 67727
L26708 67839
L26764 68064
L26764 68346
L26708 68571
L26652 68683
L26595 68739
L26483 68796
L26370 68796
L26258 68739
L26202 68683
L26145 68571
L26089 68346
L26089 68064
L26145 67839
L26202 67727
L26258 67671
L26370 67615
" />
<path d="M27270 68683
L27327 68739
L27270 68796
L27214 68739
L27270 68683
L27270 68796
" />
<path d="M28058 67615
L28170 67615
L28283 67671
L28339 67727
L28395 67839
L28451 68064
L28451 68346
L28395 68571
L28339 68683
L28283 68739
L28170 68796
L28058 68796
L27945 68739
L27889 68683
L27833 68571
L27776 68346
L27776 68064
L27833 67839
L27889 67727
L27945 67671
L28058 67615
" />
<path d="M29520 67615
L28958 67615
L28901 68177
L28958 68121
L29070 68064
L29351 68064
L29464 68121
L29520 68177
L29576 68289
L29576 68571
L29520 68683
L29464 68739
L29351 68796
L29070 68796
L28958 68739
L28901 68683
" />
<path d="M30645 67615
L30082 67615
L30026 68177
L30082 68121
L30195 68064
L30476 68064
L30589 68121
L30645 68177
L30701 68289
L30701 68571
L30645 68683
L30589 68739
L30476 68796
L30195 68796
L30082 68739
L30026 68683
" />
<path d="M31826 68796
L31151 68796
" />
<path d="M31489 68796
L31489 67615
L31376 67783
L31264 67896
L31151 67952
" />
<path d="M32276 67615
L32276 67839
" />
<path d="M32726 67615
L32726 67839
" />
<path d="M34469 69246
L34413 69189
L34301 69021
L34244 68908
L34188 68739
L34132 68458
L34132 68233
L34188 67952
L34244 67783
L34301 67671
L34413 67502
L34469 67446
" />
<path d="M35088 68121
L34976 68064
L34919 68008
L34863 67896
L34863 67839
L34919 67727
L34976 67671
L35088 67615
L35313 67615
L35426 67671
L35482 67727
L35538 67839
L35538 67896
L35482 68008
L35426 68064
L35313 68121
L35088 68121
L34976 68177
L34919 68233
L34863 68346
L34863 68571
L34919 68683
L34976 68739
L35088 68796
L35313 68796
L35426 68739
L35482 68683
L35538 68571
L35538 68346
L35482 68233
L35426 68177
L35313 68121
" />
<path d="M36944 68796
L36944 67615
" />
<path d="M37450 68796
L37450 68177
L37394 68064
L37282 68008
L37113 68008
L37000 68064
L36944 68121
" />
<path d="M38181 68796
L38069 68739
L38013 68683
L37956 68571
L37956 68233
L38013 68121
L38069 68064
L38181 68008
L38350 68008
L38463 68064
L38519 68121
L38575 68233
L38575 68571
L38519 68683
L38463 68739
L38350 68796
L38181 68796
" />
<path d="M39250 68796
L39138 68739
L39081 68627
L39081 67615
" />
<path d="M40150 68739
L40037 68796
L39812 68796
L39700 68739
L39644 68627
L39644 68177
L39700 68064
L39812 68008
L40037 68008
L40150 68064
L40206 68177
L40206 68289
L39644 68402
" />
<path d="M40656 68739
L40769 68796
L40994 68796
L41106 68739
L41162 68627
L41162 68571
L41106 68458
L40994 68402
L40825 68402
L40712 68346
L40656 68233
L40656 68177
L40712 68064
L40825 68008
L40994 68008
L41106 68064
" />
<path d="M41556 69246
L41612 69189
L41725 69021
L41781 68908
L41837 68739
L41893 68458
L41893 68233
L41837 67952
L41781 67783
L41725 67671
L41612 67502
L41556 67446
" />
<path d="M12982 69427
L13769 70214
" />
<path d="M13769 69427
L12982 70214
" />
<path style="fill:#000000; fill-opacity:0.0; 
stroke:#000000; stroke-width:118.11; stroke-opacity:1; 
stroke-linecap:round; stroke-linejoin:round;fill:none"
d="M 13654.4,70099.1
13654.4,69542.6
13097.9,69542.6
13097.9,70099.1
Z" /> 
<text x="14557.1" y="70411.4"
textLength="27677.2" font-size="1574.8" lengthAdjust="spacingAndGlyphs"
text-anchor="start" opacity="0">1.999mm / 0.0787" (4 holes)</text>
<path d="M15516 70355
L14841 70355
" />
<path d="M15178 70355
L15178 69174
L15066 69342
L14953 69455
L14841 69511
" />
<path d="M16022 70242
L16078 70298
L16022 70355
L15965 70298
L16022 70242
L16022 70355
" />
<path d="M16640 70355
L16865 70355
L16978 70298
L17034 70242
L17147 70073
L17203 69848
L17203 69399
L17147 69286
L17090 69230
L16978 69174
L16753 69174
L16640 69230
L16584 69286
L16528 69399
L16528 69680
L16584 69792
L16640 69848
L16753 69905
L16978 69905
L17090 69848
L17147 69792
L17203 69680
" />
<path d="M17765 70355
L17990 70355
L18103 70298
L18159 70242
L18271 70073
L18328 69848
L18328 69399
L18271 69286
L18215 69230
L18103 69174
L17878 69174
L17765 69230
L17709 69286
L17653 69399
L17653 69680
L17709 69792
L17765 69848
L17878 69905
L18103 69905
L18215 69848
L18271 69792
L18328 69680
" />
<path d="M18890 70355
L19115 70355
L19228 70298
L19284 70242
L19396 70073
L19453 69848
L19453 69399
L19396 69286
L19340 69230
L19228 69174
L19003 69174
L18890 69230
L18834 69286
L18778 69399
L18778 69680
L18834 69792
L18890 69848
L19003 69905
L19228 69905
L19340 69848
L19396 69792
L19453 69680
" />
<path d="M19959 70355
L19959 69567
" />
<path d="M19959 69680
L20015 69624
L20127 69567
L20296 69567
L20409 69624
L20465 69736
L20465 70355
" />
<path d="M20465 69736
L20521 69624
L20634 69567
L20802 69567
L20915 69624
L20971 69736
L20971 70355
" />
<path d="M21534 70355
L21534 69567
" />
<path d="M21534 69680
L21590 69624
L21702 69567
L21871 69567
L21983 69624
L22040 69736
L22040 70355
" />
<path d="M22040 69736
L22096 69624
L22208 69567
L22377 69567
L22490 69624
L22546 69736
L22546 70355
" />
<path d="M24852 69117
L23839 70636
" />
<path d="M26370 69174
L26483 69174
L26595 69230
L26652 69286
L26708 69399
L26764 69624
L26764 69905
L26708 70130
L26652 70242
L26595 70298
L26483 70355
L26370 70355
L26258 70298
L26202 70242
L26145 70130
L26089 69905
L26089 69624
L26145 69399
L26202 69286
L26258 69230
L26370 69174
" />
<path d="M27270 70242
L27327 70298
L27270 70355
L27214 70298
L27270 70242
L27270 70355
" />
<path d="M28058 69174
L28170 69174
L28283 69230
L28339 69286
L28395 69399
L28451 69624
L28451 69905
L28395 70130
L28339 70242
L28283 70298
L28170 70355
L28058 70355
L27945 70298
L27889 70242
L27833 70130
L27776 69905
L27776 69624
L27833 69399
L27889 69286
L27945 69230
L28058 69174
" />
<path d="M28845 69174
L29633 69174
L29126 70355
" />
<path d="M30251 69680
L30139 69624
L30082 69567
L30026 69455
L30026 69399
L30082 69286
L30139 69230
L30251 69174
L30476 69174
L30589 69230
L30645 69286
L30701 69399
L30701 69455
L30645 69567
L30589 69624
L30476 69680
L30251 69680
L30139 69736
L30082 69792
L30026 69905
L30026 70130
L30082 70242
L30139 70298
L30251 70355
L30476 70355
L30589 70298
L30645 70242
L30701 70130
L30701 69905
L30645 69792
L30589 69736
L30476 69680
" />
<path d="M31095 69174
L31882 69174
L31376 70355
" />
<path d="M32276 69174
L32276 69399
" />
<path d="M32726 69174
L32726 69399
" />
<path d="M34469 70805
L34413 70748
L34301 70580
L34244 70467
L34188 70298
L34132 70017
L34132 69792
L34188 69511
L34244 69342
L34301 69230
L34413 69061
L34469 69005
" />
<path d="M35426 69567
L35426 70355
" />
<path d="M35144 69117
L34863 69961
L35594 69961
" />
<path d="M36944 70355
L36944 69174
" />
<path d="M37450 70355
L37450 69736
L37394 69624
L37282 69567
L37113 69567
L37000 69624
L36944 69680
" />
<path d="M38181 70355
L38069 70298
L38013 70242
L37956 70130
L37956 69792
L38013 69680
L38069 69624
L38181 69567
L38350 69567
L38463 69624
L38519 69680
L38575 69792
L38575 70130
L38519 70242
L38463 70298
L38350 70355
L38181 70355
" />
<path d="M39250 70355
L39138 70298
L39081 70186
L39081 69174
" />
<path d="M40150 70298
L40037 70355
L39812 70355
L39700 70298
L39644 70186
L39644 69736
L39700 69624
L39812 69567
L40037 69567
L40150 69624
L40206 69736
L40206 69848
L39644 69961
" />
<path d="M40656 70298
L40769 70355
L40994 70355
L41106 70298
L41162 70186
L41162 70130
L41106 70017
L40994 69961
L40825 69961
L40712 69905
L40656 69792
L40656 69736
L40712 69624
L40825 69567
L40994 69567
L41106 69624
" />
<path d="M41556 70805
L41612 70748
L41725 70580
L41781 70467
L41837 70298
L41893 70017
L41893 69792
L41837 69511
L41781 69342
L41725 69230
L41612 69061
L41556 69005
" />
<path d="M12863 70926
L13769 71832
" />
<path d="M13769 70926
L12863 71832
" />
<path style="fill:#000000; fill-opacity:0.0; 
stroke:#000000; stroke-width:118.11; stroke-opacity:1; 
stroke-linecap:round; stroke-linejoin:round;fill:none"
d="M 13316.7,71832.9
13769.7,71379.9
13316.7,70926.9
12863.7,71379.9
Z" /> 
<text x="14557.1" y="71970.5"
textLength="27677.2" font-size="1574.8" lengthAdjust="spacingAndGlyphs"
text-anchor="start" opacity="0">2.301mm / 0.0906" (2 holes)</text>
<path d="M14841 70845
L14897 70789
L15009 70733
L15291 70733
L15403 70789
L15459 70845
L15516 70958
L15516 71070
L15459 71239
L14784 71914
L15516 71914
" />
<path d="M16022 71801
L16078 71857
L16022 71914
L15965 71857
L16022 71801
L16022 71914
" />
<path d="M16472 70733
L17203 70733
L16809 71183
L16978 71183
L17090 71239
L17147 71295
L17203 71408
L17203 71689
L17147 71801
L17090 71857
L16978 71914
L16640 71914
L16528 71857
L16472 71801
" />
<path d="M17934 70733
L18046 70733
L18159 70789
L18215 70845
L18271 70958
L18328 71183
L18328 71464
L18271 71689
L18215 71801
L18159 71857
L18046 71914
L17934 71914
L17821 71857
L17765 71801
L17709 71689
L17653 71464
L17653 71183
L17709 70958
L17765 70845
L17821 70789
L17934 70733
" />
<path d="M19453 71914
L18778 71914
" />
<path d="M19115 71914
L19115 70733
L19003 70901
L18890 71014
L18778 71070
" />
<path d="M19959 71914
L19959 71126
" />
<path d="M19959 71239
L20015 71183
L20127 71126
L20296 71126
L20409 71183
L20465 71295
L20465 71914
" />
<path d="M20465 71295
L20521 71183
L20634 71126
L20802 71126
L20915 71183
L20971 71295
L20971 71914
" />
<path d="M21534 71914
L21534 71126
" />
<path d="M21534 71239
L21590 71183
L21702 71126
L21871 71126
L21983 71183
L22040 71295
L22040 71914
" />
<path d="M22040 71295
L22096 71183
L22208 71126
L22377 71126
L22490 71183
L22546 71295
L22546 71914
" />
<path d="M24852 70676
L23839 72195
" />
<path d="M26370 70733
L26483 70733
L26595 70789
L26652 70845
L26708 70958
L26764 71183
L26764 71464
L26708 71689
L26652 71801
L26595 71857
L26483 71914
L26370 71914
L26258 71857
L26202 71801
L26145 71689
L26089 71464
L26089 71183
L26145 70958
L26202 70845
L26258 70789
L26370 70733
" />
<path d="M27270 71801
L27327 71857
L27270 71914
L27214 71857
L27270 71801
L27270 71914
" />
<path d="M28058 70733
L28170 70733
L28283 70789
L28339 70845
L28395 70958
L28451 71183
L28451 71464
L28395 71689
L28339 71801
L28283 71857
L28170 71914
L28058 71914
L27945 71857
L27889 71801
L27833 71689
L27776 71464
L27776 71183
L27833 70958
L27889 70845
L27945 70789
L28058 70733
" />
<path d="M29014 71914
L29239 71914
L29351 71857
L29408 71801
L29520 71633
L29576 71408
L29576 70958
L29520 70845
L29464 70789
L29351 70733
L29126 70733
L29014 70789
L28958 70845
L28901 70958
L28901 71239
L28958 71351
L29014 71408
L29126 71464
L29351 71464
L29464 71408
L29520 71351
L29576 71239
" />
<path d="M30307 70733
L30420 70733
L30532 70789
L30589 70845
L30645 70958
L30701 71183
L30701 71464
L30645 71689
L30589 71801
L30532 71857
L30420 71914
L30307 71914
L30195 71857
L30139 71801
L30082 71689
L30026 71464
L30026 71183
L30082 70958
L30139 70845
L30195 70789
L30307 70733
" />
<path d="M31714 70733
L31489 70733
L31376 70789
L31320 70845
L31207 71014
L31151 71239
L31151 71689
L31207 71801
L31264 71857
L31376 71914
L31601 71914
L31714 71857
L31770 71801
L31826 71689
L31826 71408
L31770 71295
L31714 71239
L31601 71183
L31376 71183
L31264 71239
L31207 71295
L31151 71408
" />
<path d="M32276 70733
L32276 70958
" />
<path d="M32726 70733
L32726 70958
" />
<path d="M34469 72364
L34413 72307
L34301 72139
L34244 72026
L34188 71857
L34132 71576
L34132 71351
L34188 71070
L34244 70901
L34301 70789
L34413 70620
L34469 70564
" />
<path d="M34863 70845
L34919 70789
L35032 70733
L35313 70733
L35426 70789
L35482 70845
L35538 70958
L35538 71070
L35482 71239
L34807 71914
L35538 71914
" />
<path d="M36944 71914
L36944 70733
" />
<path d="M37450 71914
L37450 71295
L37394 71183
L37282 71126
L37113 71126
L37000 71183
L36944 71239
" />
<path d="M38181 71914
L38069 71857
L38013 71801
L37956 71689
L37956 71351
L38013 71239
L38069 71183
L38181 71126
L38350 71126
L38463 71183
L38519 71239
L38575 71351
L38575 71689
L38519 71801
L38463 71857
L38350 71914
L38181 71914
" />
<path d="M39250 71914
L39138 71857
L39081 71745
L39081 70733
" />
<path d="M40150 71857
L40037 71914
L39812 71914
L39700 71857
L39644 71745
L39644 71295
L39700 71183
L39812 71126
L40037 71126
L40150 71183
L40206 71295
L40206 71408
L39644 71520
" />
<path d="M40656 71857
L40769 71914
L40994 71914
L41106 71857
L41162 71745
L41162 71689
L41106 71576
L40994 71520
L40825 71520
L40712 71464
L40656 71351
L40656 71295
L40712 71183
L40825 71126
L40994 71126
L41106 71183
" />
<path d="M41556 72364
L41612 72307
L41725 72139
L41781 72026
L41837 71857
L41893 71576
L41893 71351
L41837 71070
L41781 70901
L41725 70789
L41612 70620
L41556 70564
" />
</g> 
</svg>
