<?xml version="1.0" standalone="no"?>
 <!DOCTYPE svg PUBLIC "-//W3C//DTD SVG 1.1//EN" 
 "http://www.w3.org/Graphics/SVG/1.1/DTD/svg11.dtd"> 
<svg
  xmlns:svg="http://www.w3.org/2000/svg"
  xmlns="http://www.w3.org/2000/svg"
  xmlns:xlink="http://www.w3.org/1999/xlink"
  version="1.1"
  width="29.700220cm" height="21.000720cm" viewBox="0 0 116930 82680">
<title>SVG Picture created as esp32-NPTH-drl_map.svg date 2021/09/30 22:29:54 </title>
  <desc>Picture generated by PCBNEW </desc>
<g style="fill:#000000; fill-opacity:1;stroke:#000000; stroke-opacity:1;
stroke-linecap:round; stroke-linejoin:round;"
 transform="translate(0 0) scale(1 1)">
</g>
<g style="fill:#000000; fill-opacity:0.0; 
stroke:#000000; stroke-width:-0.000393701; stroke-opacity:1; 
stroke-linecap:round; stroke-linejoin:round;">
</g>
<g style="fill:#000000; fill-opacity:0.0; 
stroke:#000000; stroke-width:19.685; stroke-opacity:1; 
stroke-linecap:round; stroke-linejoin:round;">
<path d="M13779 15748
L92519 15748
" />
<path d="M13779 55118
L13779 15748
" />
<path d="M92519 55118
L13779 55118
" />
<path d="M92519 15748
L92519 55118
" />
</g>
<g style="fill:#000000; fill-opacity:0.0; 
stroke:#000000; stroke-width:78.7402; stroke-opacity:1; 
stroke-linecap:round; stroke-linejoin:round;">
</g>
<g style="fill:#000000; fill-opacity:0.0; 
stroke:#000000; stroke-width:118.11; stroke-opacity:1; 
stroke-linecap:round; stroke-linejoin:round;">
<text x="14557.1" y="57017.7"
textLength="8779.53" font-size="1574.8" lengthAdjust="spacingAndGlyphs"
text-anchor="start" opacity="0">Drill Map:</text>
<path d="M14897 56961
L14897 55780
L15178 55780
L15347 55836
L15459 55949
L15516 56061
L15572 56286
L15572 56455
L15516 56680
L15459 56792
L15347 56905
L15178 56961
L14897 56961
" />
<path d="M16078 56961
L16078 56174
" />
<path d="M16078 56399
L16134 56286
L16190 56230
L16303 56174
L16415 56174
" />
<path d="M16809 56961
L16809 56174
" />
<path d="M16809 55780
L16753 55836
L16809 55892
L16865 55836
L16809 55780
L16809 55892
" />
<path d="M17540 56961
L17428 56905
L17372 56792
L17372 55780
" />
<path d="M18159 56961
L18046 56905
L17990 56792
L17990 55780
" />
<path d="M19509 56961
L19509 55780
L19902 56624
L20296 55780
L20296 56961
" />
<path d="M21365 56961
L21365 56342
L21309 56230
L21196 56174
L20971 56174
L20859 56230
" />
<path d="M21365 56905
L21252 56961
L20971 56961
L20859 56905
L20802 56792
L20802 56680
L20859 56567
L20971 56511
L21252 56511
L21365 56455
" />
<path d="M21927 56174
L21927 57355
" />
<path d="M21927 56230
L22040 56174
L22265 56174
L22377 56230
L22433 56286
L22490 56399
L22490 56736
L22433 56848
L22377 56905
L22265 56961
L22040 56961
L21927 56905
" />
<path d="M22996 56848
L23052 56905
L22996 56961
L22940 56905
L22996 56848
L22996 56961
" />
<path d="M22996 56230
L23052 56286
L22996 56342
L22940 56286
L22996 56230
L22996 56342
" />
</g> 
</svg>
